<?xml version="1.0" encoding="UTF-8" standalone="no"?>
<!DOCTYPE svg PUBLIC "-//W3C//DTD SVG 1.1//EN"
 "http://www.w3.org/Graphics/SVG/1.1/DTD/svg11.dtd">
<!-- Generated by graphviz version 2.38.0 (20140413.2041)
 -->
<!-- Title: %3 Pages: 1 -->
<svg width="777pt" height="704pt"
 viewBox="0.00 0.00 777.00 704.00" xmlns="http://www.w3.org/2000/svg" xmlns:xlink="http://www.w3.org/1999/xlink">
<g id="graph0" class="graph" transform="scale(1 1) rotate(0) translate(4 700)">
<title>%3</title>
<polygon fill="white" stroke="none" points="-4,4 -4,-700 773,-700 773,4 -4,4"/>
<!-- 10 -->
<g id="node1" class="node"><title>10</title>
<g id="a_node1"><a xlink:title="&lt;frozen importlib._bootstrap&gt;">
<polygon fill="#0d1375" stroke="#0d1375" points="454.5,-696 274.5,-696 274.5,-644 454.5,-644 454.5,-696"/>
<text text-anchor="middle" x="364.5" y="-684" font-family="Arial" font-size="10.00" fill="#ffffff">&lt;frozen importlib:1002:_find_and_load</text>
<text text-anchor="middle" x="364.5" y="-673" font-family="Arial" font-size="10.00" fill="#ffffff">1.53%</text>
<text text-anchor="middle" x="364.5" y="-662" font-family="Arial" font-size="10.00" fill="#ffffff">(0.01%)</text>
<text text-anchor="middle" x="364.5" y="-651" font-family="Arial" font-size="10.00" fill="#ffffff">439×</text>
</a>
</g>
</g>
<!-- 63 -->
<g id="node2" class="node"><title>63</title>
<g id="a_node2"><a xlink:title="&lt;frozen importlib._bootstrap&gt;">
<polygon fill="#0d1375" stroke="#0d1375" points="391,-604 172,-604 172,-552 391,-552 391,-604"/>
<text text-anchor="middle" x="281.5" y="-592" font-family="Arial" font-size="10.00" fill="#ffffff">&lt;frozen importlib:967:_find_and_load_unlocked</text>
<text text-anchor="middle" x="281.5" y="-581" font-family="Arial" font-size="10.00" fill="#ffffff">1.53%</text>
<text text-anchor="middle" x="281.5" y="-570" font-family="Arial" font-size="10.00" fill="#ffffff">(0.00%)</text>
<text text-anchor="middle" x="281.5" y="-559" font-family="Arial" font-size="10.00" fill="#ffffff">438×</text>
</a>
</g>
</g>
<!-- 10&#45;&gt;63 -->
<g id="edge1" class="edge"><title>10&#45;&gt;63</title>
<path fill="none" stroke="#0d1375" stroke-width="0.5" d="M341.38,-643.93C330.766,-632.421 318.143,-618.734 307.229,-606.899"/>
<polygon fill="#0d1375" stroke="#0d1375" stroke-width="0.5" points="308.057,-605.99 304.784,-604.248 306.256,-607.651 308.057,-605.99"/>
<text text-anchor="middle" x="347.5" y="-627" font-family="Arial" font-size="10.00" fill="#0d1375">1.53%</text>
<text text-anchor="middle" x="347.5" y="-616" font-family="Arial" font-size="10.00" fill="#0d1375">25×</text>
</g>
<!-- 60 -->
<g id="node4" class="node"><title>60</title>
<g id="a_node4"><a xlink:title="&lt;frozen importlib._bootstrap&gt;">
<polygon fill="#0d1375" stroke="#0d1375" points="391,-328 162,-328 162,-276 391,-276 391,-328"/>
<text text-anchor="middle" x="276.5" y="-316" font-family="Arial" font-size="10.00" fill="#ffffff">&lt;frozen importlib:220:_call_with_frames_removed</text>
<text text-anchor="middle" x="276.5" y="-305" font-family="Arial" font-size="10.00" fill="#ffffff">1.48%</text>
<text text-anchor="middle" x="276.5" y="-294" font-family="Arial" font-size="10.00" fill="#ffffff">(0.00%)</text>
<text text-anchor="middle" x="276.5" y="-283" font-family="Arial" font-size="10.00" fill="#ffffff">523×</text>
</a>
</g>
</g>
<!-- 63&#45;&gt;60 -->
<g id="edge5" class="edge"><title>63&#45;&gt;60</title>
<path fill="none" stroke="#0d1274" stroke-width="0.5" d="M238.236,-551.789C224.514,-541.373 210.977,-527.963 203.5,-512 196.173,-496.356 195.702,-389.614 205.5,-368 212.107,-353.425 223.706,-340.659 235.637,-330.388"/>
<polygon fill="#0d1274" stroke="#0d1274" stroke-width="0.5" points="236.462,-331.294 238.348,-328.101 234.882,-329.422 236.462,-331.294"/>
<text text-anchor="middle" x="212.5" y="-443" font-family="Arial" font-size="10.00" fill="#0d1274">1.22%</text>
<text text-anchor="middle" x="212.5" y="-432" font-family="Arial" font-size="10.00" fill="#0d1274">6×</text>
</g>
<!-- 69 -->
<g id="node6" class="node"><title>69</title>
<g id="a_node6"><a xlink:title="&lt;frozen importlib._bootstrap&gt;">
<polygon fill="#0d1375" stroke="#0d1375" points="386.5,-512 208.5,-512 208.5,-460 386.5,-460 386.5,-512"/>
<text text-anchor="middle" x="297.5" y="-500" font-family="Arial" font-size="10.00" fill="#ffffff">&lt;frozen importlib:659:_load_unlocked</text>
<text text-anchor="middle" x="297.5" y="-489" font-family="Arial" font-size="10.00" fill="#ffffff">1.51%</text>
<text text-anchor="middle" x="297.5" y="-478" font-family="Arial" font-size="10.00" fill="#ffffff">(0.00%)</text>
<text text-anchor="middle" x="297.5" y="-467" font-family="Arial" font-size="10.00" fill="#ffffff">414×</text>
</a>
</g>
</g>
<!-- 63&#45;&gt;69 -->
<g id="edge6" class="edge"><title>63&#45;&gt;69</title>
<path fill="none" stroke="#0d1375" stroke-width="0.5" d="M285.957,-551.93C287.951,-540.712 290.314,-527.422 292.38,-515.798"/>
<polygon fill="#0d1375" stroke="#0d1375" stroke-width="0.5" points="293.605,-515.908 293.012,-512.248 291.193,-515.479 293.605,-515.908"/>
<text text-anchor="middle" x="305.5" y="-535" font-family="Arial" font-size="10.00" fill="#0d1375">1.51%</text>
<text text-anchor="middle" x="305.5" y="-524" font-family="Arial" font-size="10.00" fill="#0d1375">28×</text>
</g>
<!-- 57 -->
<g id="node3" class="node"><title>57</title>
<g id="a_node3"><a xlink:title="~">
<polygon fill="#0d1274" stroke="#0d1274" points="313.5,-236 119.5,-236 119.5,-184 313.5,-184 313.5,-236"/>
<text text-anchor="middle" x="216.5" y="-224" font-family="Arial" font-size="10.00" fill="#ffffff">~:0:&lt;built&#45;in method builtins.__import__&gt;</text>
<text text-anchor="middle" x="216.5" y="-213" font-family="Arial" font-size="10.00" fill="#ffffff">1.28%</text>
<text text-anchor="middle" x="216.5" y="-202" font-family="Arial" font-size="10.00" fill="#ffffff">(0.00%)</text>
<text text-anchor="middle" x="216.5" y="-191" font-family="Arial" font-size="10.00" fill="#ffffff">84×</text>
</a>
</g>
</g>
<!-- 57&#45;&gt;10 -->
<g id="edge2" class="edge"><title>57&#45;&gt;10</title>
<path fill="none" stroke="#0d1274" stroke-width="0.5" d="M182.809,-236.344C165.293,-252.596 147.5,-275.405 147.5,-301 147.5,-579 147.5,-579 147.5,-579 147.5,-635.984 212.136,-657.575 270.856,-665.433"/>
<polygon fill="#0d1274" stroke="#0d1274" stroke-width="0.5" points="270.729,-666.652 274.358,-665.887 271.044,-664.222 270.729,-666.652"/>
<text text-anchor="middle" x="161.5" y="-443" font-family="Arial" font-size="10.00" fill="#0d1274">1.28%</text>
<text text-anchor="middle" x="161.5" y="-432" font-family="Arial" font-size="10.00" fill="#0d1274">20×</text>
</g>
<!-- 60&#45;&gt;57 -->
<g id="edge3" class="edge"><title>60&#45;&gt;57</title>
<path fill="none" stroke="#0d1274" stroke-width="0.5" d="M259.787,-275.93C252.179,-264.518 243.142,-250.963 235.299,-239.198"/>
<polygon fill="#0d1274" stroke="#0d1274" stroke-width="0.5" points="236.293,-238.48 233.332,-236.248 234.254,-239.839 236.293,-238.48"/>
<text text-anchor="middle" x="268.5" y="-259" font-family="Arial" font-size="10.00" fill="#0d1274">1.28%</text>
<text text-anchor="middle" x="268.5" y="-248" font-family="Arial" font-size="10.00" fill="#0d1274">20×</text>
</g>
<!-- 985 -->
<g id="node5" class="node"><title>985</title>
<g id="a_node5"><a xlink:title="~">
<polygon fill="#ff0000" stroke="#ff0000" points="509,-236 342,-236 342,-184 509,-184 509,-236"/>
<text text-anchor="middle" x="425.5" y="-224" font-family="Arial" font-size="10.00" fill="#ffffff">~:0:&lt;built&#45;in method builtins.exec&gt;</text>
<text text-anchor="middle" x="425.5" y="-213" font-family="Arial" font-size="10.00" fill="#ffffff">100.00%</text>
<text text-anchor="middle" x="425.5" y="-202" font-family="Arial" font-size="10.00" fill="#ffffff">(0.01%)</text>
<text text-anchor="middle" x="425.5" y="-191" font-family="Arial" font-size="10.00" fill="#ffffff">393×</text>
</a>
</g>
</g>
<!-- 60&#45;&gt;985 -->
<g id="edge4" class="edge"><title>60&#45;&gt;985</title>
<path fill="none" stroke="#0d1375" stroke-width="0.5" d="M318.005,-275.93C337.459,-264.179 360.676,-250.156 380.546,-238.153"/>
<polygon fill="#0d1375" stroke="#0d1375" stroke-width="0.5" points="381.597,-238.95 383.96,-236.092 380.33,-236.853 381.597,-238.95"/>
<text text-anchor="middle" x="383.5" y="-259" font-family="Arial" font-size="10.00" fill="#0d1375">1.47%</text>
<text text-anchor="middle" x="383.5" y="-248" font-family="Arial" font-size="10.00" fill="#0d1375">25×</text>
</g>
<!-- 88 -->
<g id="node8" class="node"><title>88</title>
<g id="a_node8"><a xlink:title="d:\Dropbox\hobby\Modding\Programs\Github\My_Repos\GidAppTools\.venv\lib\site&#45;packages\gidapptools\meta_data\__init__.py">
<polygon fill="#0d1274" stroke="#0d1274" points="227,-144 122,-144 122,-92 227,-92 227,-144"/>
<text text-anchor="middle" x="174.5" y="-132" font-family="Arial" font-size="10.00" fill="#ffffff">__init__:1:&lt;module&gt;</text>
<text text-anchor="middle" x="174.5" y="-121" font-family="Arial" font-size="10.00" fill="#ffffff">1.18%</text>
<text text-anchor="middle" x="174.5" y="-110" font-family="Arial" font-size="10.00" fill="#ffffff">(0.00%)</text>
<text text-anchor="middle" x="174.5" y="-99" font-family="Arial" font-size="10.00" fill="#ffffff">1×</text>
</a>
</g>
</g>
<!-- 985&#45;&gt;88 -->
<g id="edge16" class="edge"><title>985&#45;&gt;88</title>
<path fill="none" stroke="#0d1274" stroke-width="0.5" d="M341.935,-184.159C332.646,-181.173 323.349,-178.086 314.5,-175 278.886,-162.579 270.507,-158.041 235.5,-144 233.86,-143.342 232.196,-142.673 230.517,-141.996"/>
<polygon fill="#0d1274" stroke="#0d1274" stroke-width="0.5" points="230.756,-140.771 227.052,-140.596 229.839,-143.043 230.756,-140.771"/>
<text text-anchor="middle" x="328.5" y="-167" font-family="Arial" font-size="10.00" fill="#0d1274">1.18%</text>
<text text-anchor="middle" x="328.5" y="-156" font-family="Arial" font-size="10.00" fill="#0d1274">1×</text>
</g>
<!-- 89 -->
<g id="node9" class="node"><title>89</title>
<g id="a_node9"><a xlink:title="d:\Dropbox\hobby\Modding\Programs\Github\My_Repos\GidAppTools\.venv\lib\site&#45;packages\gidapptools\meta_data\meta_info\__init__.py">
<polygon fill="#0d1174" stroke="#0d1174" points="105,-144 0,-144 0,-92 105,-92 105,-144"/>
<text text-anchor="middle" x="52.5" y="-132" font-family="Arial" font-size="10.00" fill="#ffffff">__init__:1:&lt;module&gt;</text>
<text text-anchor="middle" x="52.5" y="-121" font-family="Arial" font-size="10.00" fill="#ffffff">1.14%</text>
<text text-anchor="middle" x="52.5" y="-110" font-family="Arial" font-size="10.00" fill="#ffffff">(0.00%)</text>
<text text-anchor="middle" x="52.5" y="-99" font-family="Arial" font-size="10.00" fill="#ffffff">1×</text>
</a>
</g>
</g>
<!-- 985&#45;&gt;89 -->
<g id="edge17" class="edge"><title>985&#45;&gt;89</title>
<path fill="none" stroke="#0d1174" stroke-width="0.5" d="M341.985,-188.567C333.74,-186.881 325.475,-185.321 317.5,-184 278.277,-177.504 267.567,-182.374 228.5,-175 178.168,-165.499 166.125,-160.101 117.5,-144 114.613,-143.044 111.665,-142.034 108.697,-140.991"/>
<polygon fill="#0d1174" stroke="#0d1174" stroke-width="0.5" points="108.914,-139.768 105.206,-139.752 108.094,-142.077 108.914,-139.768"/>
<text text-anchor="middle" x="242.5" y="-167" font-family="Arial" font-size="10.00" fill="#0d1174">1.14%</text>
<text text-anchor="middle" x="242.5" y="-156" font-family="Arial" font-size="10.00" fill="#0d1174">1×</text>
</g>
<!-- 206 -->
<g id="node10" class="node"><title>206</title>
<g id="a_node10"><a xlink:title="interface.py">
<polygon fill="#ff0000" stroke="#ff0000" points="348.5,-144 240.5,-144 240.5,-92 348.5,-92 348.5,-144"/>
<text text-anchor="middle" x="294.5" y="-132" font-family="Arial" font-size="10.00" fill="#ffffff">interface:1:&lt;module&gt;</text>
<text text-anchor="middle" x="294.5" y="-121" font-family="Arial" font-size="10.00" fill="#ffffff">100.00%</text>
<text text-anchor="middle" x="294.5" y="-110" font-family="Arial" font-size="10.00" fill="#ffffff">(0.00%)</text>
<text text-anchor="middle" x="294.5" y="-99" font-family="Arial" font-size="10.00" fill="#ffffff">1×</text>
</a>
</g>
</g>
<!-- 985&#45;&gt;206 -->
<g id="edge18" class="edge"><title>985&#45;&gt;206</title>
<path fill="none" stroke="#ff0000" stroke-width="4" d="M389.009,-183.93C373.666,-173.389 355.66,-161.019 339.505,-149.92"/>
<polygon fill="#ff0000" stroke="#ff0000" stroke-width="4" points="341.474,-147.026 331.249,-144.248 337.51,-152.795 341.474,-147.026"/>
<text text-anchor="middle" x="396" y="-167" font-family="Arial" font-size="10.00" fill="#ff0000">100.00%</text>
<text text-anchor="middle" x="396" y="-156" font-family="Arial" font-size="10.00" fill="#ff0000">1×</text>
</g>
<!-- 238 -->
<g id="node12" class="node"><title>238</title>
<g id="a_node12"><a xlink:title="d:\Dropbox\hobby\Modding\Programs\Github\My_Repos\GidAppTools\.venv\lib\site&#45;packages\gidapptools\meta_data\interface.py">
<polygon fill="#0d1274" stroke="#0d1274" points="622.5,-144 514.5,-144 514.5,-92 622.5,-92 622.5,-144"/>
<text text-anchor="middle" x="568.5" y="-132" font-family="Arial" font-size="10.00" fill="#ffffff">interface:1:&lt;module&gt;</text>
<text text-anchor="middle" x="568.5" y="-121" font-family="Arial" font-size="10.00" fill="#ffffff">1.18%</text>
<text text-anchor="middle" x="568.5" y="-110" font-family="Arial" font-size="10.00" fill="#ffffff">(0.00%)</text>
<text text-anchor="middle" x="568.5" y="-99" font-family="Arial" font-size="10.00" fill="#ffffff">1×</text>
</a>
</g>
</g>
<!-- 985&#45;&gt;238 -->
<g id="edge19" class="edge"><title>985&#45;&gt;238</title>
<path fill="none" stroke="#0d1274" stroke-width="0.5" d="M465.333,-183.93C483.927,-172.228 506.1,-158.273 525.117,-146.304"/>
<polygon fill="#0d1274" stroke="#0d1274" stroke-width="0.5" points="526.075,-147.149 528.384,-144.248 524.769,-145.075 526.075,-147.149"/>
<text text-anchor="middle" x="528.5" y="-167" font-family="Arial" font-size="10.00" fill="#0d1274">1.18%</text>
<text text-anchor="middle" x="528.5" y="-156" font-family="Arial" font-size="10.00" fill="#0d1274">1×</text>
</g>
<!-- 240 -->
<g id="node13" class="node"><title>240</title>
<g id="a_node13"><a xlink:title="d:\Dropbox\hobby\Modding\Programs\Github\My_Repos\GidAppTools\.venv\lib\site&#45;packages\gidapptools\meta_data\meta_info\meta_info_factory.py">
<polygon fill="#0d1174" stroke="#0d1174" points="505.5,-144 357.5,-144 357.5,-92 505.5,-92 505.5,-144"/>
<text text-anchor="middle" x="431.5" y="-132" font-family="Arial" font-size="10.00" fill="#ffffff">meta_info_factory:1:&lt;module&gt;</text>
<text text-anchor="middle" x="431.5" y="-121" font-family="Arial" font-size="10.00" fill="#ffffff">1.14%</text>
<text text-anchor="middle" x="431.5" y="-110" font-family="Arial" font-size="10.00" fill="#ffffff">(0.00%)</text>
<text text-anchor="middle" x="431.5" y="-99" font-family="Arial" font-size="10.00" fill="#ffffff">1×</text>
</a>
</g>
</g>
<!-- 985&#45;&gt;240 -->
<g id="edge20" class="edge"><title>985&#45;&gt;240</title>
<path fill="none" stroke="#0d1174" stroke-width="0.5" d="M427.171,-183.93C427.919,-172.712 428.805,-159.422 429.58,-147.798"/>
<polygon fill="#0d1174" stroke="#0d1174" stroke-width="0.5" points="430.806,-147.821 429.817,-144.248 428.362,-147.658 430.806,-147.821"/>
<text text-anchor="middle" x="443.5" y="-167" font-family="Arial" font-size="10.00" fill="#0d1174">1.14%</text>
<text text-anchor="middle" x="443.5" y="-156" font-family="Arial" font-size="10.00" fill="#0d1174">1×</text>
</g>
<!-- 241 -->
<g id="node14" class="node"><title>241</title>
<g id="a_node14"><a xlink:title="d:\Dropbox\hobby\Modding\Programs\Github\My_Repos\GidAppTools\.venv\lib\site&#45;packages\gidapptools\meta_data\meta_info\meta_info_item.py">
<polygon fill="#0d1174" stroke="#0d1174" points="769,-144 632,-144 632,-92 769,-92 769,-144"/>
<text text-anchor="middle" x="700.5" y="-132" font-family="Arial" font-size="10.00" fill="#ffffff">meta_info_item:1:&lt;module&gt;</text>
<text text-anchor="middle" x="700.5" y="-121" font-family="Arial" font-size="10.00" fill="#ffffff">1.14%</text>
<text text-anchor="middle" x="700.5" y="-110" font-family="Arial" font-size="10.00" fill="#ffffff">(0.00%)</text>
<text text-anchor="middle" x="700.5" y="-99" font-family="Arial" font-size="10.00" fill="#ffffff">1×</text>
</a>
</g>
</g>
<!-- 985&#45;&gt;241 -->
<g id="edge21" class="edge"><title>985&#45;&gt;241</title>
<path fill="none" stroke="#0d1174" stroke-width="0.5" d="M509.257,-185.826C521.126,-182.323 533.149,-178.655 544.5,-175 572.68,-165.927 603.405,-155.103 630.078,-145.399"/>
<polygon fill="#0d1174" stroke="#0d1174" stroke-width="0.5" points="630.777,-146.449 633.646,-144.099 629.938,-144.147 630.777,-146.449"/>
<text text-anchor="middle" x="618.5" y="-167" font-family="Arial" font-size="10.00" fill="#0d1174">1.14%</text>
<text text-anchor="middle" x="618.5" y="-156" font-family="Arial" font-size="10.00" fill="#0d1174">1×</text>
</g>
<!-- 65 -->
<g id="node7" class="node"><title>65</title>
<g id="a_node7"><a xlink:title="&lt;frozen importlib._bootstrap_external&gt;">
<polygon fill="#0d1375" stroke="#0d1375" points="378.5,-420 210.5,-420 210.5,-368 378.5,-368 378.5,-420"/>
<text text-anchor="middle" x="294.5" y="-408" font-family="Arial" font-size="10.00" fill="#ffffff">&lt;frozen importlib:844:exec_module</text>
<text text-anchor="middle" x="294.5" y="-397" font-family="Arial" font-size="10.00" fill="#ffffff">1.50%</text>
<text text-anchor="middle" x="294.5" y="-386" font-family="Arial" font-size="10.00" fill="#ffffff">(0.00%)</text>
<text text-anchor="middle" x="294.5" y="-375" font-family="Arial" font-size="10.00" fill="#ffffff">369×</text>
</a>
</g>
</g>
<!-- 69&#45;&gt;65 -->
<g id="edge8" class="edge"><title>69&#45;&gt;65</title>
<path fill="none" stroke="#0d1375" stroke-width="0.5" d="M296.664,-459.93C296.29,-448.712 295.847,-435.422 295.46,-423.798"/>
<polygon fill="#0d1375" stroke="#0d1375" stroke-width="0.5" points="296.683,-423.705 295.342,-420.248 294.234,-423.787 296.683,-423.705"/>
<text text-anchor="middle" x="310.5" y="-443" font-family="Arial" font-size="10.00" fill="#0d1375">1.50%</text>
<text text-anchor="middle" x="310.5" y="-432" font-family="Arial" font-size="10.00" fill="#0d1375">25×</text>
</g>
<!-- 65&#45;&gt;60 -->
<g id="edge7" class="edge"><title>65&#45;&gt;60</title>
<path fill="none" stroke="#0d1375" stroke-width="0.5" d="M289.486,-367.93C287.242,-356.712 284.584,-343.422 282.26,-331.798"/>
<polygon fill="#0d1375" stroke="#0d1375" stroke-width="0.5" points="283.437,-331.439 281.55,-328.248 281.035,-331.92 283.437,-331.439"/>
<text text-anchor="middle" x="302.5" y="-351" font-family="Arial" font-size="10.00" fill="#0d1375">1.47%</text>
<text text-anchor="middle" x="302.5" y="-340" font-family="Arial" font-size="10.00" fill="#0d1375">25×</text>
</g>
<!-- 88&#45;&gt;10 -->
<g id="edge9" class="edge"><title>88&#45;&gt;10</title>
<path fill="none" stroke="#0d1274" stroke-width="0.5" d="M140.809,-144.344C123.293,-160.596 105.5,-183.405 105.5,-209 105.5,-579 105.5,-579 105.5,-579 105.5,-612.964 127.574,-618.937 157.5,-635 191.85,-653.437 233.667,-662.4 270.701,-666.589"/>
<polygon fill="#0d1274" stroke="#0d1274" stroke-width="0.5" points="270.657,-667.816 274.269,-666.979 270.923,-665.381 270.657,-667.816"/>
<text text-anchor="middle" x="119.5" y="-397" font-family="Arial" font-size="10.00" fill="#0d1274">1.18%</text>
<text text-anchor="middle" x="119.5" y="-386" font-family="Arial" font-size="10.00" fill="#0d1274">1×</text>
</g>
<!-- 89&#45;&gt;10 -->
<g id="edge10" class="edge"><title>89&#45;&gt;10</title>
<path fill="none" stroke="#0d1174" stroke-width="0.5" d="M50.7804,-144.203C49.6963,-162.24 48.5,-187.103 48.5,-209 48.5,-579 48.5,-579 48.5,-579 48.5,-618.842 81.8978,-619.264 118.5,-635 166.175,-655.497 223.4,-664.236 270.656,-667.742"/>
<polygon fill="#0d1174" stroke="#0d1174" stroke-width="0.5" points="270.75,-668.977 274.329,-668.006 270.926,-666.533 270.75,-668.977"/>
<text text-anchor="middle" x="62.5" y="-397" font-family="Arial" font-size="10.00" fill="#0d1174">1.14%</text>
<text text-anchor="middle" x="62.5" y="-386" font-family="Arial" font-size="10.00" fill="#0d1174">1×</text>
</g>
<!-- 206&#45;&gt;10 -->
<g id="edge11" class="edge"><title>206&#45;&gt;10</title>
<path fill="none" stroke="#0d1375" stroke-width="0.5" d="M313.951,-144.36C315.645,-147.188 317.204,-150.097 318.5,-153 333.926,-187.556 323.202,-200.962 337.5,-236 343.606,-250.962 343.384,-257.56 356.5,-267 370.938,-277.392 383.479,-262.887 395.5,-276 417.034,-299.491 405.5,-315.133 405.5,-347 405.5,-579 405.5,-579 405.5,-579 405.5,-601.053 395.18,-623.631 384.895,-640.657"/>
<polygon fill="#0d1375" stroke="#0d1375" stroke-width="0.5" points="383.636,-640.365 382.841,-643.987 385.721,-641.651 383.636,-640.365"/>
<text text-anchor="middle" x="419.5" y="-397" font-family="Arial" font-size="10.00" fill="#0d1375">1.50%</text>
<text text-anchor="middle" x="419.5" y="-386" font-family="Arial" font-size="10.00" fill="#0d1375">22×</text>
</g>
<!-- 2884 -->
<g id="node11" class="node"><title>2884</title>
<g id="a_node11"><a xlink:title="~">
<polygon fill="#fc1400" stroke="#fc1400" points="373.5,-52 215.5,-52 215.5,-0 373.5,-0 373.5,-52"/>
<text text-anchor="middle" x="294.5" y="-40" font-family="Arial" font-size="10.00" fill="#ffffff">~:0:&lt;built&#45;in method time.sleep&gt;</text>
<text text-anchor="middle" x="294.5" y="-29" font-family="Arial" font-size="10.00" fill="#ffffff">98.05%</text>
<text text-anchor="middle" x="294.5" y="-18" font-family="Arial" font-size="10.00" fill="#ffffff">(98.05%)</text>
<text text-anchor="middle" x="294.5" y="-7" font-family="Arial" font-size="10.00" fill="#ffffff">1×</text>
</a>
</g>
</g>
<!-- 206&#45;&gt;2884 -->
<g id="edge12" class="edge"><title>206&#45;&gt;2884</title>
<path fill="none" stroke="#fc1400" stroke-width="3.92" d="M294.5,-91.93C294.5,-82.7425 294.5,-72.1661 294.5,-62.2526"/>
<polygon fill="#fc1400" stroke="#fc1400" stroke-width="3.92" points="297.965,-62.1477 294.5,-52.2477 291.035,-62.1478 297.965,-62.1477"/>
<text text-anchor="middle" x="311.5" y="-75" font-family="Arial" font-size="10.00" fill="#fc1400">98.05%</text>
<text text-anchor="middle" x="311.5" y="-64" font-family="Arial" font-size="10.00" fill="#fc1400">1×</text>
</g>
<!-- 238&#45;&gt;10 -->
<g id="edge13" class="edge"><title>238&#45;&gt;10</title>
<path fill="none" stroke="#0d1274" stroke-width="0.5" d="M573.659,-144.097C576.911,-162.084 580.5,-186.931 580.5,-209 580.5,-579 580.5,-579 580.5,-579 580.5,-635.66 516.387,-657.296 458.02,-665.253"/>
<polygon fill="#0d1274" stroke="#0d1274" stroke-width="0.5" points="457.849,-664.04 454.539,-665.712 458.17,-666.469 457.849,-664.04"/>
<text text-anchor="middle" x="594.5" y="-397" font-family="Arial" font-size="10.00" fill="#0d1274">1.18%</text>
<text text-anchor="middle" x="594.5" y="-386" font-family="Arial" font-size="10.00" fill="#0d1274">5×</text>
</g>
<!-- 240&#45;&gt;10 -->
<g id="edge14" class="edge"><title>240&#45;&gt;10</title>
<path fill="none" stroke="#0d1174" stroke-width="0.5" d="M479.656,-144.01C501.915,-159.312 523.5,-181.293 523.5,-209 523.5,-579 523.5,-579 523.5,-579 523.5,-614.798 492.598,-636.525 458.04,-649.629"/>
<polygon fill="#0d1174" stroke="#0d1174" stroke-width="0.5" points="457.542,-648.507 454.685,-650.871 458.393,-650.805 457.542,-648.507"/>
<text text-anchor="middle" x="537.5" y="-397" font-family="Arial" font-size="10.00" fill="#0d1174">1.14%</text>
<text text-anchor="middle" x="537.5" y="-386" font-family="Arial" font-size="10.00" fill="#0d1174">1×</text>
</g>
<!-- 241&#45;&gt;10 -->
<g id="edge15" class="edge"><title>241&#45;&gt;10</title>
<path fill="none" stroke="#0d1174" stroke-width="0.5" d="M692.657,-144.334C687.807,-162.221 682.5,-186.851 682.5,-209 682.5,-579 682.5,-579 682.5,-579 682.5,-626.018 552.164,-649.721 458.375,-660.691"/>
<polygon fill="#0d1174" stroke="#0d1174" stroke-width="0.5" points="458.111,-659.489 454.775,-661.108 458.393,-661.922 458.111,-659.489"/>
<text text-anchor="middle" x="696.5" y="-397" font-family="Arial" font-size="10.00" fill="#0d1174">1.13%</text>
<text text-anchor="middle" x="696.5" y="-386" font-family="Arial" font-size="10.00" fill="#0d1174">10×</text>
</g>
</g>
</svg>
