<?xml version="1.0" encoding="utf-8" standalone="no"?>
<!DOCTYPE svg PUBLIC "-//W3C//DTD SVG 1.1//EN"
  "http://www.w3.org/Graphics/SVG/1.1/DTD/svg11.dtd">
<svg height="432pt" version="1.1" viewBox="0 0 1008 432" width="1008pt" xmlns="http://www.w3.org/2000/svg" xmlns:xlink="http://www.w3.org/1999/xlink">
 <metadata>
  <rdf:RDF xmlns:cc="http://creativecommons.org/ns#" xmlns:dc="http://purl.org/dc/elements/1.1/" xmlns:rdf="http://www.w3.org/1999/02/22-rdf-syntax-ns#">
   <cc:Work>
    <dc:type rdf:resource="http://purl.org/dc/dcmitype/StillImage"/>
    <dc:date>2021-09-28T03:25:43.847745</dc:date>
    <dc:format>image/svg+xml</dc:format>
    <dc:creator>
     <cc:Agent>
      <dc:title>Matplotlib v3.4.3, https://matplotlib.org/</dc:title>
     </cc:Agent>
    </dc:creator>
   </cc:Work>
  </rdf:RDF>
 </metadata>
 <defs>
  <style type="text/css">*{stroke-linecap:butt;stroke-linejoin:round;}</style>
 </defs>
 <g id="figure_1">
  <g id="patch_1">
   <path d="M 0 432 
L 1008 432 
L 1008 0 
L 0 0 
z
" style="fill:#ffffff;"/>
  </g>
  <g id="axes_1">
   <g id="patch_2">
    <path d="M 100.8 388.8 
L 705.6 388.8 
L 705.6 64.8 
L 100.8 64.8 
z
" style="fill:#ffffff;"/>
   </g>
   <g id="matplotlib.axis_1">
    <g id="xtick_1">
     <g id="line2d_1">
      <path clip-path="url(#p72df2a844e)" d="M 152.847226 388.8 
L 152.847226 64.8 
" style="fill:none;stroke:#b0b0b0;stroke-linecap:square;stroke-width:0.8;"/>
     </g>
     <g id="line2d_2">
      <defs>
       <path d="M 0 0 
L 0 3.5 
" id="m866c2d14e5" style="stroke:#000000;stroke-width:0.8;"/>
      </defs>
      <g>
       <use style="stroke:#000000;stroke-width:0.8;" x="152.847226" xlink:href="#m866c2d14e5" y="388.8"/>
      </g>
     </g>
     <g id="text_1">
      <!-- 0.0 -->
      <g transform="translate(144.895663 403.398438)scale(0.1 -0.1)">
       <defs>
        <path d="M 2034 4250 
Q 1547 4250 1301 3770 
Q 1056 3291 1056 2328 
Q 1056 1369 1301 889 
Q 1547 409 2034 409 
Q 2525 409 2770 889 
Q 3016 1369 3016 2328 
Q 3016 3291 2770 3770 
Q 2525 4250 2034 4250 
z
M 2034 4750 
Q 2819 4750 3233 4129 
Q 3647 3509 3647 2328 
Q 3647 1150 3233 529 
Q 2819 -91 2034 -91 
Q 1250 -91 836 529 
Q 422 1150 422 2328 
Q 422 3509 836 4129 
Q 1250 4750 2034 4750 
z
" id="DejaVuSans-30" transform="scale(0.015625)"/>
        <path d="M 684 794 
L 1344 794 
L 1344 0 
L 684 0 
L 684 794 
z
" id="DejaVuSans-2e" transform="scale(0.015625)"/>
       </defs>
       <use xlink:href="#DejaVuSans-30"/>
       <use x="63.623047" xlink:href="#DejaVuSans-2e"/>
       <use x="95.410156" xlink:href="#DejaVuSans-30"/>
      </g>
     </g>
    </g>
    <g id="xtick_2">
     <g id="line2d_3">
      <path clip-path="url(#p72df2a844e)" d="M 248.639381 388.8 
L 248.639381 64.8 
" style="fill:none;stroke:#b0b0b0;stroke-linecap:square;stroke-width:0.8;"/>
     </g>
     <g id="line2d_4">
      <g>
       <use style="stroke:#000000;stroke-width:0.8;" x="248.639381" xlink:href="#m866c2d14e5" y="388.8"/>
      </g>
     </g>
     <g id="text_2">
      <!-- 0.2 -->
      <g transform="translate(240.687818 403.398438)scale(0.1 -0.1)">
       <defs>
        <path d="M 1228 531 
L 3431 531 
L 3431 0 
L 469 0 
L 469 531 
Q 828 903 1448 1529 
Q 2069 2156 2228 2338 
Q 2531 2678 2651 2914 
Q 2772 3150 2772 3378 
Q 2772 3750 2511 3984 
Q 2250 4219 1831 4219 
Q 1534 4219 1204 4116 
Q 875 4013 500 3803 
L 500 4441 
Q 881 4594 1212 4672 
Q 1544 4750 1819 4750 
Q 2544 4750 2975 4387 
Q 3406 4025 3406 3419 
Q 3406 3131 3298 2873 
Q 3191 2616 2906 2266 
Q 2828 2175 2409 1742 
Q 1991 1309 1228 531 
z
" id="DejaVuSans-32" transform="scale(0.015625)"/>
       </defs>
       <use xlink:href="#DejaVuSans-30"/>
       <use x="63.623047" xlink:href="#DejaVuSans-2e"/>
       <use x="95.410156" xlink:href="#DejaVuSans-32"/>
      </g>
     </g>
    </g>
    <g id="xtick_3">
     <g id="line2d_5">
      <path clip-path="url(#p72df2a844e)" d="M 344.431536 388.8 
L 344.431536 64.8 
" style="fill:none;stroke:#b0b0b0;stroke-linecap:square;stroke-width:0.8;"/>
     </g>
     <g id="line2d_6">
      <g>
       <use style="stroke:#000000;stroke-width:0.8;" x="344.431536" xlink:href="#m866c2d14e5" y="388.8"/>
      </g>
     </g>
     <g id="text_3">
      <!-- 0.4 -->
      <g transform="translate(336.479973 403.398438)scale(0.1 -0.1)">
       <defs>
        <path d="M 2419 4116 
L 825 1625 
L 2419 1625 
L 2419 4116 
z
M 2253 4666 
L 3047 4666 
L 3047 1625 
L 3713 1625 
L 3713 1100 
L 3047 1100 
L 3047 0 
L 2419 0 
L 2419 1100 
L 313 1100 
L 313 1709 
L 2253 4666 
z
" id="DejaVuSans-34" transform="scale(0.015625)"/>
       </defs>
       <use xlink:href="#DejaVuSans-30"/>
       <use x="63.623047" xlink:href="#DejaVuSans-2e"/>
       <use x="95.410156" xlink:href="#DejaVuSans-34"/>
      </g>
     </g>
    </g>
    <g id="xtick_4">
     <g id="line2d_7">
      <path clip-path="url(#p72df2a844e)" d="M 440.223691 388.8 
L 440.223691 64.8 
" style="fill:none;stroke:#b0b0b0;stroke-linecap:square;stroke-width:0.8;"/>
     </g>
     <g id="line2d_8">
      <g>
       <use style="stroke:#000000;stroke-width:0.8;" x="440.223691" xlink:href="#m866c2d14e5" y="388.8"/>
      </g>
     </g>
     <g id="text_4">
      <!-- 0.6 -->
      <g transform="translate(432.272128 403.398438)scale(0.1 -0.1)">
       <defs>
        <path d="M 2113 2584 
Q 1688 2584 1439 2293 
Q 1191 2003 1191 1497 
Q 1191 994 1439 701 
Q 1688 409 2113 409 
Q 2538 409 2786 701 
Q 3034 994 3034 1497 
Q 3034 2003 2786 2293 
Q 2538 2584 2113 2584 
z
M 3366 4563 
L 3366 3988 
Q 3128 4100 2886 4159 
Q 2644 4219 2406 4219 
Q 1781 4219 1451 3797 
Q 1122 3375 1075 2522 
Q 1259 2794 1537 2939 
Q 1816 3084 2150 3084 
Q 2853 3084 3261 2657 
Q 3669 2231 3669 1497 
Q 3669 778 3244 343 
Q 2819 -91 2113 -91 
Q 1303 -91 875 529 
Q 447 1150 447 2328 
Q 447 3434 972 4092 
Q 1497 4750 2381 4750 
Q 2619 4750 2861 4703 
Q 3103 4656 3366 4563 
z
" id="DejaVuSans-36" transform="scale(0.015625)"/>
       </defs>
       <use xlink:href="#DejaVuSans-30"/>
       <use x="63.623047" xlink:href="#DejaVuSans-2e"/>
       <use x="95.410156" xlink:href="#DejaVuSans-36"/>
      </g>
     </g>
    </g>
    <g id="xtick_5">
     <g id="line2d_9">
      <path clip-path="url(#p72df2a844e)" d="M 536.015846 388.8 
L 536.015846 64.8 
" style="fill:none;stroke:#b0b0b0;stroke-linecap:square;stroke-width:0.8;"/>
     </g>
     <g id="line2d_10">
      <g>
       <use style="stroke:#000000;stroke-width:0.8;" x="536.015846" xlink:href="#m866c2d14e5" y="388.8"/>
      </g>
     </g>
     <g id="text_5">
      <!-- 0.8 -->
      <g transform="translate(528.064283 403.398438)scale(0.1 -0.1)">
       <defs>
        <path d="M 2034 2216 
Q 1584 2216 1326 1975 
Q 1069 1734 1069 1313 
Q 1069 891 1326 650 
Q 1584 409 2034 409 
Q 2484 409 2743 651 
Q 3003 894 3003 1313 
Q 3003 1734 2745 1975 
Q 2488 2216 2034 2216 
z
M 1403 2484 
Q 997 2584 770 2862 
Q 544 3141 544 3541 
Q 544 4100 942 4425 
Q 1341 4750 2034 4750 
Q 2731 4750 3128 4425 
Q 3525 4100 3525 3541 
Q 3525 3141 3298 2862 
Q 3072 2584 2669 2484 
Q 3125 2378 3379 2068 
Q 3634 1759 3634 1313 
Q 3634 634 3220 271 
Q 2806 -91 2034 -91 
Q 1263 -91 848 271 
Q 434 634 434 1313 
Q 434 1759 690 2068 
Q 947 2378 1403 2484 
z
M 1172 3481 
Q 1172 3119 1398 2916 
Q 1625 2713 2034 2713 
Q 2441 2713 2670 2916 
Q 2900 3119 2900 3481 
Q 2900 3844 2670 4047 
Q 2441 4250 2034 4250 
Q 1625 4250 1398 4047 
Q 1172 3844 1172 3481 
z
" id="DejaVuSans-38" transform="scale(0.015625)"/>
       </defs>
       <use xlink:href="#DejaVuSans-30"/>
       <use x="63.623047" xlink:href="#DejaVuSans-2e"/>
       <use x="95.410156" xlink:href="#DejaVuSans-38"/>
      </g>
     </g>
    </g>
    <g id="xtick_6">
     <g id="line2d_11">
      <path clip-path="url(#p72df2a844e)" d="M 631.808001 388.8 
L 631.808001 64.8 
" style="fill:none;stroke:#b0b0b0;stroke-linecap:square;stroke-width:0.8;"/>
     </g>
     <g id="line2d_12">
      <g>
       <use style="stroke:#000000;stroke-width:0.8;" x="631.808001" xlink:href="#m866c2d14e5" y="388.8"/>
      </g>
     </g>
     <g id="text_6">
      <!-- 1.0 -->
      <g transform="translate(623.856438 403.398438)scale(0.1 -0.1)">
       <defs>
        <path d="M 794 531 
L 1825 531 
L 1825 4091 
L 703 3866 
L 703 4441 
L 1819 4666 
L 2450 4666 
L 2450 531 
L 3481 531 
L 3481 0 
L 794 0 
L 794 531 
z
" id="DejaVuSans-31" transform="scale(0.015625)"/>
       </defs>
       <use xlink:href="#DejaVuSans-31"/>
       <use x="63.623047" xlink:href="#DejaVuSans-2e"/>
       <use x="95.410156" xlink:href="#DejaVuSans-30"/>
      </g>
     </g>
    </g>
    <g id="text_7">
     <!-- time (in seconds) -->
     <g transform="translate(359.828906 417.076563)scale(0.1 -0.1)">
      <defs>
       <path d="M 1172 4494 
L 1172 3500 
L 2356 3500 
L 2356 3053 
L 1172 3053 
L 1172 1153 
Q 1172 725 1289 603 
Q 1406 481 1766 481 
L 2356 481 
L 2356 0 
L 1766 0 
Q 1100 0 847 248 
Q 594 497 594 1153 
L 594 3053 
L 172 3053 
L 172 3500 
L 594 3500 
L 594 4494 
L 1172 4494 
z
" id="DejaVuSans-74" transform="scale(0.015625)"/>
       <path d="M 603 3500 
L 1178 3500 
L 1178 0 
L 603 0 
L 603 3500 
z
M 603 4863 
L 1178 4863 
L 1178 4134 
L 603 4134 
L 603 4863 
z
" id="DejaVuSans-69" transform="scale(0.015625)"/>
       <path d="M 3328 2828 
Q 3544 3216 3844 3400 
Q 4144 3584 4550 3584 
Q 5097 3584 5394 3201 
Q 5691 2819 5691 2113 
L 5691 0 
L 5113 0 
L 5113 2094 
Q 5113 2597 4934 2840 
Q 4756 3084 4391 3084 
Q 3944 3084 3684 2787 
Q 3425 2491 3425 1978 
L 3425 0 
L 2847 0 
L 2847 2094 
Q 2847 2600 2669 2842 
Q 2491 3084 2119 3084 
Q 1678 3084 1418 2786 
Q 1159 2488 1159 1978 
L 1159 0 
L 581 0 
L 581 3500 
L 1159 3500 
L 1159 2956 
Q 1356 3278 1631 3431 
Q 1906 3584 2284 3584 
Q 2666 3584 2933 3390 
Q 3200 3197 3328 2828 
z
" id="DejaVuSans-6d" transform="scale(0.015625)"/>
       <path d="M 3597 1894 
L 3597 1613 
L 953 1613 
Q 991 1019 1311 708 
Q 1631 397 2203 397 
Q 2534 397 2845 478 
Q 3156 559 3463 722 
L 3463 178 
Q 3153 47 2828 -22 
Q 2503 -91 2169 -91 
Q 1331 -91 842 396 
Q 353 884 353 1716 
Q 353 2575 817 3079 
Q 1281 3584 2069 3584 
Q 2775 3584 3186 3129 
Q 3597 2675 3597 1894 
z
M 3022 2063 
Q 3016 2534 2758 2815 
Q 2500 3097 2075 3097 
Q 1594 3097 1305 2825 
Q 1016 2553 972 2059 
L 3022 2063 
z
" id="DejaVuSans-65" transform="scale(0.015625)"/>
       <path id="DejaVuSans-20" transform="scale(0.015625)"/>
       <path d="M 1984 4856 
Q 1566 4138 1362 3434 
Q 1159 2731 1159 2009 
Q 1159 1288 1364 580 
Q 1569 -128 1984 -844 
L 1484 -844 
Q 1016 -109 783 600 
Q 550 1309 550 2009 
Q 550 2706 781 3412 
Q 1013 4119 1484 4856 
L 1984 4856 
z
" id="DejaVuSans-28" transform="scale(0.015625)"/>
       <path d="M 3513 2113 
L 3513 0 
L 2938 0 
L 2938 2094 
Q 2938 2591 2744 2837 
Q 2550 3084 2163 3084 
Q 1697 3084 1428 2787 
Q 1159 2491 1159 1978 
L 1159 0 
L 581 0 
L 581 3500 
L 1159 3500 
L 1159 2956 
Q 1366 3272 1645 3428 
Q 1925 3584 2291 3584 
Q 2894 3584 3203 3211 
Q 3513 2838 3513 2113 
z
" id="DejaVuSans-6e" transform="scale(0.015625)"/>
       <path d="M 2834 3397 
L 2834 2853 
Q 2591 2978 2328 3040 
Q 2066 3103 1784 3103 
Q 1356 3103 1142 2972 
Q 928 2841 928 2578 
Q 928 2378 1081 2264 
Q 1234 2150 1697 2047 
L 1894 2003 
Q 2506 1872 2764 1633 
Q 3022 1394 3022 966 
Q 3022 478 2636 193 
Q 2250 -91 1575 -91 
Q 1294 -91 989 -36 
Q 684 19 347 128 
L 347 722 
Q 666 556 975 473 
Q 1284 391 1588 391 
Q 1994 391 2212 530 
Q 2431 669 2431 922 
Q 2431 1156 2273 1281 
Q 2116 1406 1581 1522 
L 1381 1569 
Q 847 1681 609 1914 
Q 372 2147 372 2553 
Q 372 3047 722 3315 
Q 1072 3584 1716 3584 
Q 2034 3584 2315 3537 
Q 2597 3491 2834 3397 
z
" id="DejaVuSans-73" transform="scale(0.015625)"/>
       <path d="M 3122 3366 
L 3122 2828 
Q 2878 2963 2633 3030 
Q 2388 3097 2138 3097 
Q 1578 3097 1268 2742 
Q 959 2388 959 1747 
Q 959 1106 1268 751 
Q 1578 397 2138 397 
Q 2388 397 2633 464 
Q 2878 531 3122 666 
L 3122 134 
Q 2881 22 2623 -34 
Q 2366 -91 2075 -91 
Q 1284 -91 818 406 
Q 353 903 353 1747 
Q 353 2603 823 3093 
Q 1294 3584 2113 3584 
Q 2378 3584 2631 3529 
Q 2884 3475 3122 3366 
z
" id="DejaVuSans-63" transform="scale(0.015625)"/>
       <path d="M 1959 3097 
Q 1497 3097 1228 2736 
Q 959 2375 959 1747 
Q 959 1119 1226 758 
Q 1494 397 1959 397 
Q 2419 397 2687 759 
Q 2956 1122 2956 1747 
Q 2956 2369 2687 2733 
Q 2419 3097 1959 3097 
z
M 1959 3584 
Q 2709 3584 3137 3096 
Q 3566 2609 3566 1747 
Q 3566 888 3137 398 
Q 2709 -91 1959 -91 
Q 1206 -91 779 398 
Q 353 888 353 1747 
Q 353 2609 779 3096 
Q 1206 3584 1959 3584 
z
" id="DejaVuSans-6f" transform="scale(0.015625)"/>
       <path d="M 2906 2969 
L 2906 4863 
L 3481 4863 
L 3481 0 
L 2906 0 
L 2906 525 
Q 2725 213 2448 61 
Q 2172 -91 1784 -91 
Q 1150 -91 751 415 
Q 353 922 353 1747 
Q 353 2572 751 3078 
Q 1150 3584 1784 3584 
Q 2172 3584 2448 3432 
Q 2725 3281 2906 2969 
z
M 947 1747 
Q 947 1113 1208 752 
Q 1469 391 1925 391 
Q 2381 391 2643 752 
Q 2906 1113 2906 1747 
Q 2906 2381 2643 2742 
Q 2381 3103 1925 3103 
Q 1469 3103 1208 2742 
Q 947 2381 947 1747 
z
" id="DejaVuSans-64" transform="scale(0.015625)"/>
       <path d="M 513 4856 
L 1013 4856 
Q 1481 4119 1714 3412 
Q 1947 2706 1947 2009 
Q 1947 1309 1714 600 
Q 1481 -109 1013 -844 
L 513 -844 
Q 928 -128 1133 580 
Q 1338 1288 1338 2009 
Q 1338 2731 1133 3434 
Q 928 4138 513 4856 
z
" id="DejaVuSans-29" transform="scale(0.015625)"/>
      </defs>
      <use xlink:href="#DejaVuSans-74"/>
      <use x="39.208984" xlink:href="#DejaVuSans-69"/>
      <use x="66.992188" xlink:href="#DejaVuSans-6d"/>
      <use x="164.404297" xlink:href="#DejaVuSans-65"/>
      <use x="225.927734" xlink:href="#DejaVuSans-20"/>
      <use x="257.714844" xlink:href="#DejaVuSans-28"/>
      <use x="296.728516" xlink:href="#DejaVuSans-69"/>
      <use x="324.511719" xlink:href="#DejaVuSans-6e"/>
      <use x="387.890625" xlink:href="#DejaVuSans-20"/>
      <use x="419.677734" xlink:href="#DejaVuSans-73"/>
      <use x="471.777344" xlink:href="#DejaVuSans-65"/>
      <use x="533.300781" xlink:href="#DejaVuSans-63"/>
      <use x="588.28125" xlink:href="#DejaVuSans-6f"/>
      <use x="649.462891" xlink:href="#DejaVuSans-6e"/>
      <use x="712.841797" xlink:href="#DejaVuSans-64"/>
      <use x="776.318359" xlink:href="#DejaVuSans-73"/>
      <use x="828.417969" xlink:href="#DejaVuSans-29"/>
     </g>
    </g>
   </g>
   <g id="matplotlib.axis_2">
    <g id="ytick_1">
     <g id="line2d_13">
      <path clip-path="url(#p72df2a844e)" d="M 100.8 369.211711 
L 705.6 369.211711 
" style="fill:none;stroke:#b0b0b0;stroke-linecap:square;stroke-width:0.8;"/>
     </g>
     <g id="line2d_14">
      <defs>
       <path d="M 0 0 
L -3.5 0 
" id="m2289d8b517" style="stroke:#000000;stroke-width:0.8;"/>
      </defs>
      <g>
       <use style="stroke:#000000;stroke-width:0.8;" x="100.8" xlink:href="#m2289d8b517" y="369.211711"/>
      </g>
     </g>
     <g id="text_8">
      <!-- 0 -->
      <g transform="translate(87.4375 373.010929)scale(0.1 -0.1)">
       <use xlink:href="#DejaVuSans-30"/>
      </g>
     </g>
    </g>
    <g id="ytick_2">
     <g id="line2d_15">
      <path clip-path="url(#p72df2a844e)" d="M 100.8 321.046211 
L 705.6 321.046211 
" style="fill:none;stroke:#b0b0b0;stroke-linecap:square;stroke-width:0.8;"/>
     </g>
     <g id="line2d_16">
      <g>
       <use style="stroke:#000000;stroke-width:0.8;" x="100.8" xlink:href="#m2289d8b517" y="321.046211"/>
      </g>
     </g>
     <g id="text_9">
      <!-- 10 -->
      <g transform="translate(81.075 324.84543)scale(0.1 -0.1)">
       <use xlink:href="#DejaVuSans-31"/>
       <use x="63.623047" xlink:href="#DejaVuSans-30"/>
      </g>
     </g>
    </g>
    <g id="ytick_3">
     <g id="line2d_17">
      <path clip-path="url(#p72df2a844e)" d="M 100.8 272.880711 
L 705.6 272.880711 
" style="fill:none;stroke:#b0b0b0;stroke-linecap:square;stroke-width:0.8;"/>
     </g>
     <g id="line2d_18">
      <g>
       <use style="stroke:#000000;stroke-width:0.8;" x="100.8" xlink:href="#m2289d8b517" y="272.880711"/>
      </g>
     </g>
     <g id="text_10">
      <!-- 20 -->
      <g transform="translate(81.075 276.67993)scale(0.1 -0.1)">
       <use xlink:href="#DejaVuSans-32"/>
       <use x="63.623047" xlink:href="#DejaVuSans-30"/>
      </g>
     </g>
    </g>
    <g id="ytick_4">
     <g id="line2d_19">
      <path clip-path="url(#p72df2a844e)" d="M 100.8 224.715212 
L 705.6 224.715212 
" style="fill:none;stroke:#b0b0b0;stroke-linecap:square;stroke-width:0.8;"/>
     </g>
     <g id="line2d_20">
      <g>
       <use style="stroke:#000000;stroke-width:0.8;" x="100.8" xlink:href="#m2289d8b517" y="224.715212"/>
      </g>
     </g>
     <g id="text_11">
      <!-- 30 -->
      <g transform="translate(81.075 228.51443)scale(0.1 -0.1)">
       <defs>
        <path d="M 2597 2516 
Q 3050 2419 3304 2112 
Q 3559 1806 3559 1356 
Q 3559 666 3084 287 
Q 2609 -91 1734 -91 
Q 1441 -91 1130 -33 
Q 819 25 488 141 
L 488 750 
Q 750 597 1062 519 
Q 1375 441 1716 441 
Q 2309 441 2620 675 
Q 2931 909 2931 1356 
Q 2931 1769 2642 2001 
Q 2353 2234 1838 2234 
L 1294 2234 
L 1294 2753 
L 1863 2753 
Q 2328 2753 2575 2939 
Q 2822 3125 2822 3475 
Q 2822 3834 2567 4026 
Q 2313 4219 1838 4219 
Q 1578 4219 1281 4162 
Q 984 4106 628 3988 
L 628 4550 
Q 988 4650 1302 4700 
Q 1616 4750 1894 4750 
Q 2613 4750 3031 4423 
Q 3450 4097 3450 3541 
Q 3450 3153 3228 2886 
Q 3006 2619 2597 2516 
z
" id="DejaVuSans-33" transform="scale(0.015625)"/>
       </defs>
       <use xlink:href="#DejaVuSans-33"/>
       <use x="63.623047" xlink:href="#DejaVuSans-30"/>
      </g>
     </g>
    </g>
    <g id="ytick_5">
     <g id="line2d_21">
      <path clip-path="url(#p72df2a844e)" d="M 100.8 176.549712 
L 705.6 176.549712 
" style="fill:none;stroke:#b0b0b0;stroke-linecap:square;stroke-width:0.8;"/>
     </g>
     <g id="line2d_22">
      <g>
       <use style="stroke:#000000;stroke-width:0.8;" x="100.8" xlink:href="#m2289d8b517" y="176.549712"/>
      </g>
     </g>
     <g id="text_12">
      <!-- 40 -->
      <g transform="translate(81.075 180.348931)scale(0.1 -0.1)">
       <use xlink:href="#DejaVuSans-34"/>
       <use x="63.623047" xlink:href="#DejaVuSans-30"/>
      </g>
     </g>
    </g>
    <g id="ytick_6">
     <g id="line2d_23">
      <path clip-path="url(#p72df2a844e)" d="M 100.8 128.384212 
L 705.6 128.384212 
" style="fill:none;stroke:#b0b0b0;stroke-linecap:square;stroke-width:0.8;"/>
     </g>
     <g id="line2d_24">
      <g>
       <use style="stroke:#000000;stroke-width:0.8;" x="100.8" xlink:href="#m2289d8b517" y="128.384212"/>
      </g>
     </g>
     <g id="text_13">
      <!-- 50 -->
      <g transform="translate(81.075 132.183431)scale(0.1 -0.1)">
       <defs>
        <path d="M 691 4666 
L 3169 4666 
L 3169 4134 
L 1269 4134 
L 1269 2991 
Q 1406 3038 1543 3061 
Q 1681 3084 1819 3084 
Q 2600 3084 3056 2656 
Q 3513 2228 3513 1497 
Q 3513 744 3044 326 
Q 2575 -91 1722 -91 
Q 1428 -91 1123 -41 
Q 819 9 494 109 
L 494 744 
Q 775 591 1075 516 
Q 1375 441 1709 441 
Q 2250 441 2565 725 
Q 2881 1009 2881 1497 
Q 2881 1984 2565 2268 
Q 2250 2553 1709 2553 
Q 1456 2553 1204 2497 
Q 953 2441 691 2322 
L 691 4666 
z
" id="DejaVuSans-35" transform="scale(0.015625)"/>
       </defs>
       <use xlink:href="#DejaVuSans-35"/>
       <use x="63.623047" xlink:href="#DejaVuSans-30"/>
      </g>
     </g>
    </g>
    <g id="ytick_7">
     <g id="line2d_25">
      <path clip-path="url(#p72df2a844e)" d="M 100.8 80.218713 
L 705.6 80.218713 
" style="fill:none;stroke:#b0b0b0;stroke-linecap:square;stroke-width:0.8;"/>
     </g>
     <g id="line2d_26">
      <g>
       <use style="stroke:#000000;stroke-width:0.8;" x="100.8" xlink:href="#m2289d8b517" y="80.218713"/>
      </g>
     </g>
     <g id="text_14">
      <!-- 60 -->
      <g transform="translate(81.075 84.017931)scale(0.1 -0.1)">
       <use xlink:href="#DejaVuSans-36"/>
       <use x="63.623047" xlink:href="#DejaVuSans-30"/>
      </g>
     </g>
    </g>
    <g id="text_15">
     <!-- memory used (in MiB) -->
     <g transform="translate(74.995313 282.075781)rotate(-90)scale(0.1 -0.1)">
      <defs>
       <path d="M 2631 2963 
Q 2534 3019 2420 3045 
Q 2306 3072 2169 3072 
Q 1681 3072 1420 2755 
Q 1159 2438 1159 1844 
L 1159 0 
L 581 0 
L 581 3500 
L 1159 3500 
L 1159 2956 
Q 1341 3275 1631 3429 
Q 1922 3584 2338 3584 
Q 2397 3584 2469 3576 
Q 2541 3569 2628 3553 
L 2631 2963 
z
" id="DejaVuSans-72" transform="scale(0.015625)"/>
       <path d="M 2059 -325 
Q 1816 -950 1584 -1140 
Q 1353 -1331 966 -1331 
L 506 -1331 
L 506 -850 
L 844 -850 
Q 1081 -850 1212 -737 
Q 1344 -625 1503 -206 
L 1606 56 
L 191 3500 
L 800 3500 
L 1894 763 
L 2988 3500 
L 3597 3500 
L 2059 -325 
z
" id="DejaVuSans-79" transform="scale(0.015625)"/>
       <path d="M 544 1381 
L 544 3500 
L 1119 3500 
L 1119 1403 
Q 1119 906 1312 657 
Q 1506 409 1894 409 
Q 2359 409 2629 706 
Q 2900 1003 2900 1516 
L 2900 3500 
L 3475 3500 
L 3475 0 
L 2900 0 
L 2900 538 
Q 2691 219 2414 64 
Q 2138 -91 1772 -91 
Q 1169 -91 856 284 
Q 544 659 544 1381 
z
M 1991 3584 
L 1991 3584 
z
" id="DejaVuSans-75" transform="scale(0.015625)"/>
       <path d="M 628 4666 
L 1569 4666 
L 2759 1491 
L 3956 4666 
L 4897 4666 
L 4897 0 
L 4281 0 
L 4281 4097 
L 3078 897 
L 2444 897 
L 1241 4097 
L 1241 0 
L 628 0 
L 628 4666 
z
" id="DejaVuSans-4d" transform="scale(0.015625)"/>
       <path d="M 1259 2228 
L 1259 519 
L 2272 519 
Q 2781 519 3026 730 
Q 3272 941 3272 1375 
Q 3272 1813 3026 2020 
Q 2781 2228 2272 2228 
L 1259 2228 
z
M 1259 4147 
L 1259 2741 
L 2194 2741 
Q 2656 2741 2882 2914 
Q 3109 3088 3109 3444 
Q 3109 3797 2882 3972 
Q 2656 4147 2194 4147 
L 1259 4147 
z
M 628 4666 
L 2241 4666 
Q 2963 4666 3353 4366 
Q 3744 4066 3744 3513 
Q 3744 3084 3544 2831 
Q 3344 2578 2956 2516 
Q 3422 2416 3680 2098 
Q 3938 1781 3938 1306 
Q 3938 681 3513 340 
Q 3088 0 2303 0 
L 628 0 
L 628 4666 
z
" id="DejaVuSans-42" transform="scale(0.015625)"/>
      </defs>
      <use xlink:href="#DejaVuSans-6d"/>
      <use x="97.412109" xlink:href="#DejaVuSans-65"/>
      <use x="158.935547" xlink:href="#DejaVuSans-6d"/>
      <use x="256.347656" xlink:href="#DejaVuSans-6f"/>
      <use x="317.529297" xlink:href="#DejaVuSans-72"/>
      <use x="358.642578" xlink:href="#DejaVuSans-79"/>
      <use x="417.822266" xlink:href="#DejaVuSans-20"/>
      <use x="449.609375" xlink:href="#DejaVuSans-75"/>
      <use x="512.988281" xlink:href="#DejaVuSans-73"/>
      <use x="565.087891" xlink:href="#DejaVuSans-65"/>
      <use x="626.611328" xlink:href="#DejaVuSans-64"/>
      <use x="690.087891" xlink:href="#DejaVuSans-20"/>
      <use x="721.875" xlink:href="#DejaVuSans-28"/>
      <use x="760.888672" xlink:href="#DejaVuSans-69"/>
      <use x="788.671875" xlink:href="#DejaVuSans-6e"/>
      <use x="852.050781" xlink:href="#DejaVuSans-20"/>
      <use x="883.837891" xlink:href="#DejaVuSans-4d"/>
      <use x="970.117188" xlink:href="#DejaVuSans-69"/>
      <use x="997.900391" xlink:href="#DejaVuSans-42"/>
      <use x="1066.503906" xlink:href="#DejaVuSans-29"/>
     </g>
    </g>
   </g>
   <g id="LineCollection_1">
    <path clip-path="url(#p72df2a844e)" d="M 128.290909 106.013597 
L 678.109091 106.013597 
" style="fill:none;stroke:#ff0000;stroke-dasharray:5.55,2.4;stroke-dashoffset:0;stroke-width:1.5;"/>
   </g>
   <g id="LineCollection_2">
    <path clip-path="url(#p72df2a844e)" d="M 602.926613 374.072727 
L 602.926613 79.527273 
" style="fill:none;stroke:#ff0000;stroke-dasharray:5.55,2.4;stroke-dashoffset:0;stroke-width:1.5;"/>
   </g>
   <g id="line2d_27">
    <path clip-path="url(#p72df2a844e)" d="M 152.847226 360.688676 
L 203.473387 271.90235 
L 253.18943 227.330449 
L 303.336665 176.850746 
L 353.00486 163.134869 
L 402.768978 145.317396 
L 452.437173 131.018263 
L 494.489942 130.660995 
L 495.926834 130.60416 
L 497.842653 130.60416 
L 499.758471 130.585376 
L 502.632256 130.585376 
L 502.632256 113.915749 
L 504.500227 130.547806 
L 506.894972 130.529022 
L 520.305929 129.343669 
L 522.173901 129.324884 
L 524.089719 129.324884 
L 526.005538 129.324884 
L 552.300451 111.752063 
L 582.858195 122.702128 
L 584.774013 122.702128 
L 586.689832 122.702128 
L 588.605764 122.702128 
L 591.479435 122.702128 
L 592.86848 122.702128 
L 595.263225 122.702128 
L 597.179157 122.702128 
L 599.094976 122.702128 
L 601.010794 122.702128 
L 602.926613 106.013597 
L 603.405653 122.702128 
L 608.195256 122.62699 
L 612.457972 122.325956 
L 615.331757 122.325956 
L 617.726501 122.325956 
L 620.12136 122.325956 
L 622.516105 122.325956 
L 653.552774 112.993832 
" style="fill:none;stroke:#000000;stroke-linecap:square;stroke-width:1.5;"/>
    <defs>
     <path d="M -3 0 
L 3 0 
M 0 3 
L 0 -3 
" id="maa7cb6b415" style="stroke:#000000;"/>
    </defs>
    <g clip-path="url(#p72df2a844e)">
     <use style="stroke:#000000;" x="152.847226" xlink:href="#maa7cb6b415" y="360.688676"/>
     <use style="stroke:#000000;" x="203.473387" xlink:href="#maa7cb6b415" y="271.90235"/>
     <use style="stroke:#000000;" x="253.18943" xlink:href="#maa7cb6b415" y="227.330449"/>
     <use style="stroke:#000000;" x="303.336665" xlink:href="#maa7cb6b415" y="176.850746"/>
     <use style="stroke:#000000;" x="353.00486" xlink:href="#maa7cb6b415" y="163.134869"/>
     <use style="stroke:#000000;" x="402.768978" xlink:href="#maa7cb6b415" y="145.317396"/>
     <use style="stroke:#000000;" x="452.437173" xlink:href="#maa7cb6b415" y="131.018263"/>
     <use style="stroke:#000000;" x="494.489942" xlink:href="#maa7cb6b415" y="130.660995"/>
     <use style="stroke:#000000;" x="495.926834" xlink:href="#maa7cb6b415" y="130.60416"/>
     <use style="stroke:#000000;" x="497.842653" xlink:href="#maa7cb6b415" y="130.60416"/>
     <use style="stroke:#000000;" x="499.758471" xlink:href="#maa7cb6b415" y="130.585376"/>
     <use style="stroke:#000000;" x="502.632256" xlink:href="#maa7cb6b415" y="130.585376"/>
     <use style="stroke:#000000;" x="502.632256" xlink:href="#maa7cb6b415" y="113.915749"/>
     <use style="stroke:#000000;" x="504.500227" xlink:href="#maa7cb6b415" y="130.547806"/>
     <use style="stroke:#000000;" x="506.894972" xlink:href="#maa7cb6b415" y="130.529022"/>
     <use style="stroke:#000000;" x="520.305929" xlink:href="#maa7cb6b415" y="129.343669"/>
     <use style="stroke:#000000;" x="522.173901" xlink:href="#maa7cb6b415" y="129.324884"/>
     <use style="stroke:#000000;" x="524.089719" xlink:href="#maa7cb6b415" y="129.324884"/>
     <use style="stroke:#000000;" x="526.005538" xlink:href="#maa7cb6b415" y="129.324884"/>
     <use style="stroke:#000000;" x="552.300451" xlink:href="#maa7cb6b415" y="111.752063"/>
     <use style="stroke:#000000;" x="582.858195" xlink:href="#maa7cb6b415" y="122.702128"/>
     <use style="stroke:#000000;" x="584.774013" xlink:href="#maa7cb6b415" y="122.702128"/>
     <use style="stroke:#000000;" x="586.689832" xlink:href="#maa7cb6b415" y="122.702128"/>
     <use style="stroke:#000000;" x="588.605764" xlink:href="#maa7cb6b415" y="122.702128"/>
     <use style="stroke:#000000;" x="591.479435" xlink:href="#maa7cb6b415" y="122.702128"/>
     <use style="stroke:#000000;" x="592.86848" xlink:href="#maa7cb6b415" y="122.702128"/>
     <use style="stroke:#000000;" x="595.263225" xlink:href="#maa7cb6b415" y="122.702128"/>
     <use style="stroke:#000000;" x="597.179157" xlink:href="#maa7cb6b415" y="122.702128"/>
     <use style="stroke:#000000;" x="599.094976" xlink:href="#maa7cb6b415" y="122.702128"/>
     <use style="stroke:#000000;" x="601.010794" xlink:href="#maa7cb6b415" y="122.702128"/>
     <use style="stroke:#000000;" x="602.926613" xlink:href="#maa7cb6b415" y="106.013597"/>
     <use style="stroke:#000000;" x="603.405653" xlink:href="#maa7cb6b415" y="122.702128"/>
     <use style="stroke:#000000;" x="608.195256" xlink:href="#maa7cb6b415" y="122.62699"/>
     <use style="stroke:#000000;" x="612.457972" xlink:href="#maa7cb6b415" y="122.325956"/>
     <use style="stroke:#000000;" x="615.331757" xlink:href="#maa7cb6b415" y="122.325956"/>
     <use style="stroke:#000000;" x="617.726501" xlink:href="#maa7cb6b415" y="122.325956"/>
     <use style="stroke:#000000;" x="620.12136" xlink:href="#maa7cb6b415" y="122.325956"/>
     <use style="stroke:#000000;" x="622.516105" xlink:href="#maa7cb6b415" y="122.325956"/>
     <use style="stroke:#000000;" x="653.552774" xlink:href="#maa7cb6b415" y="112.993832"/>
    </g>
   </g>
   <g id="line2d_28">
    <path clip-path="url(#p72df2a844e)" d="M 152.847226 266.069285 
L 203.473387 248.561344 
L 253.18943 231.368148 
L 303.336665 214.025834 
L 353.00486 196.849185 
L 402.768978 179.639364 
L 452.437173 162.462715 
L 494.489942 147.919693 
L 495.926834 147.422776 
L 497.842653 146.760232 
L 499.758471 146.097689 
L 502.632256 145.103854 
L 502.632256 145.103854 
L 504.500227 144.457857 
L 506.894972 143.629687 
L 520.305929 138.991804 
L 522.173901 138.345807 
L 524.089719 137.683264 
L 526.005538 137.02072 
L 552.300451 127.927205 
L 582.858195 117.359484 
L 584.774013 116.69694 
L 586.689832 116.034397 
L 588.605764 115.371814 
L 591.479435 114.378018 
L 592.86848 113.897647 
L 595.263225 113.069478 
L 597.179157 112.406895 
L 599.094976 111.744351 
L 601.010794 111.081808 
L 602.926613 110.419264 
L 603.405653 110.253599 
L 608.195256 108.59722 
L 612.457972 107.123054 
L 615.331757 106.129219 
L 617.726501 105.301049 
L 620.12136 104.47284 
L 622.516105 103.644671 
L 653.552774 92.911324 
" style="fill:none;stroke:#00e3d8;stroke-dasharray:1.85,0.8;stroke-dashoffset:0;stroke-width:0.5;"/>
   </g>
   <g id="line2d_29">
    <path clip-path="url(#p72df2a844e)" d="M 503.669586 115.933241 
L 494.489942 115.933241 
L 494.489942 145.38875 
L 503.669586 145.38875 
" style="fill:none;stroke:#00bfbf;stroke-linecap:square;stroke-width:2;"/>
   </g>
   <g id="line2d_30">
    <path clip-path="url(#p72df2a844e)" d="M 486.74719 115.876406 
L 495.926834 115.876406 
L 495.926834 145.331914 
L 486.74719 145.331914 
" style="fill:none;stroke:#00bfbf;stroke-linecap:square;stroke-width:2;"/>
   </g>
   <g id="line2d_31">
    <path clip-path="url(#p72df2a844e)" d="M 507.022297 115.876406 
L 497.842653 115.876406 
L 497.842653 145.331914 
L 507.022297 145.331914 
" style="fill:none;stroke:#bfbf00;stroke-linecap:square;stroke-width:2;"/>
   </g>
   <g id="line2d_32">
    <path clip-path="url(#p72df2a844e)" d="M 490.578826 115.857621 
L 499.758471 115.857621 
L 499.758471 145.31313 
L 490.578826 145.31313 
" style="fill:none;stroke:#bfbf00;stroke-linecap:square;stroke-width:2;"/>
   </g>
   <g id="line2d_33">
    <path clip-path="url(#p72df2a844e)" d="M 610.190439 107.974374 
L 601.010794 107.974374 
L 601.010794 137.429883 
L 610.190439 137.429883 
" style="fill:none;stroke:#008000;stroke-linecap:square;stroke-width:2;"/>
   </g>
   <g id="line2d_34">
    <path clip-path="url(#p72df2a844e)" d="M 594.226008 107.974374 
L 603.405653 107.974374 
L 603.405653 137.429883 
L 594.226008 137.429883 
" style="fill:none;stroke:#008000;stroke-linecap:square;stroke-width:2;"/>
   </g>
   <g id="line2d_35">
    <path clip-path="url(#p72df2a844e)" d="M 602.048125 107.974374 
L 592.86848 107.974374 
L 592.86848 137.429883 
L 602.048125 137.429883 
" style="fill:none;stroke:#ff0000;stroke-linecap:square;stroke-width:2;"/>
   </g>
   <g id="line2d_36">
    <path clip-path="url(#p72df2a844e)" d="M 586.08358 107.974374 
L 595.263225 107.974374 
L 595.263225 137.429883 
L 586.08358 137.429883 
" style="fill:none;stroke:#ff0000;stroke-linecap:square;stroke-width:2;"/>
   </g>
   <g id="line2d_37">
    <path clip-path="url(#p72df2a844e)" d="M 624.511401 107.598201 
L 615.331757 107.598201 
L 615.331757 137.05371 
L 624.511401 137.05371 
" style="fill:none;stroke:#ff0000;stroke-linecap:square;stroke-width:2;"/>
   </g>
   <g id="line2d_38">
    <path clip-path="url(#p72df2a844e)" d="M 608.546857 107.598201 
L 617.726501 107.598201 
L 617.726501 137.05371 
L 608.546857 137.05371 
" style="fill:none;stroke:#ff0000;stroke-linecap:square;stroke-width:2;"/>
   </g>
   <g id="line2d_39">
    <path clip-path="url(#p72df2a844e)" d="M 516.074616 115.801268 
L 506.894972 115.801268 
L 506.894972 145.256776 
L 516.074616 145.256776 
" style="fill:none;stroke:#0000ff;stroke-linecap:square;stroke-width:2;"/>
   </g>
   <g id="line2d_40">
    <path clip-path="url(#p72df2a844e)" d="M 514.910075 114.59713 
L 524.089719 114.59713 
L 524.089719 144.052639 
L 514.910075 144.052639 
" style="fill:none;stroke:#0000ff;stroke-linecap:square;stroke-width:2;"/>
   </g>
   <g id="line2d_41">
    <path clip-path="url(#p72df2a844e)" d="M 529.485574 114.615915 
L 520.305929 114.615915 
L 520.305929 144.071423 
L 529.485574 144.071423 
" style="fill:none;stroke:#00bfbf;stroke-linecap:square;stroke-width:2;"/>
   </g>
   <g id="line2d_42">
    <path clip-path="url(#p72df2a844e)" d="M 512.994256 114.59713 
L 522.173901 114.59713 
L 522.173901 144.052639 
L 512.994256 144.052639 
" style="fill:none;stroke:#00bfbf;stroke-linecap:square;stroke-width:2;"/>
   </g>
   <g id="line2d_43">
    <path clip-path="url(#p72df2a844e)" d="M 600.659079 107.974374 
L 591.479435 107.974374 
L 591.479435 137.429883 
L 600.659079 137.429883 
" style="fill:none;stroke:#bfbf00;stroke-linecap:square;stroke-width:2;"/>
   </g>
   <g id="line2d_44">
    <path clip-path="url(#p72df2a844e)" d="M 587.999513 107.974374 
L 597.179157 107.974374 
L 597.179157 137.429883 
L 587.999513 137.429883 
" style="fill:none;stroke:#bfbf00;stroke-linecap:square;stroke-width:2;"/>
   </g>
   <g id="line2d_45">
    <path clip-path="url(#p72df2a844e)" d="M 621.637617 107.598201 
L 612.457972 107.598201 
L 612.457972 137.05371 
L 621.637617 137.05371 
" style="fill:none;stroke:#bfbf00;stroke-linecap:square;stroke-width:2;"/>
   </g>
   <g id="line2d_46">
    <path clip-path="url(#p72df2a844e)" d="M 610.941715 107.598201 
L 620.12136 107.598201 
L 620.12136 137.05371 
L 610.941715 137.05371 
" style="fill:none;stroke:#bfbf00;stroke-linecap:square;stroke-width:2;"/>
   </g>
   <g id="line2d_47">
    <path clip-path="url(#p72df2a844e)" d="M 535.185182 114.59713 
L 526.005538 114.59713 
L 526.005538 144.052639 
L 535.185182 144.052639 
" style="fill:none;stroke:#008000;stroke-linecap:square;stroke-width:2;"/>
   </g>
   <g id="line2d_48">
    <path clip-path="url(#p72df2a844e)" d="M 573.67855 107.974374 
L 582.858195 107.974374 
L 582.858195 137.429883 
L 573.67855 137.429883 
" style="fill:none;stroke:#008000;stroke-linecap:square;stroke-width:2;"/>
   </g>
   <g id="line2d_49">
    <path clip-path="url(#p72df2a844e)" d="M 513.679872 115.820052 
L 504.500227 115.820052 
L 504.500227 145.275561 
L 513.679872 145.275561 
" style="fill:none;stroke:#ff0000;stroke-linecap:square;stroke-width:2;"/>
   </g>
   <g id="line2d_50">
    <path clip-path="url(#p72df2a844e)" d="M 575.594369 107.974374 
L 584.774013 107.974374 
L 584.774013 137.429883 
L 575.594369 137.429883 
" style="fill:none;stroke:#ff0000;stroke-linecap:square;stroke-width:2;"/>
   </g>
   <g id="line2d_51">
    <path clip-path="url(#p72df2a844e)" d="M 511.8119 115.857621 
L 502.632256 115.857621 
L 502.632256 145.31313 
L 511.8119 145.31313 
" style="fill:none;stroke:#0000ff;stroke-linecap:square;stroke-width:2;"/>
   </g>
   <g id="line2d_52">
    <path clip-path="url(#p72df2a844e)" d="M 577.510187 107.974374 
L 586.689832 107.974374 
L 586.689832 137.429883 
L 577.510187 137.429883 
" style="fill:none;stroke:#0000ff;stroke-linecap:square;stroke-width:2;"/>
   </g>
   <g id="line2d_53">
    <path clip-path="url(#p72df2a844e)" d="M 617.374901 107.899236 
L 608.195256 107.899236 
L 608.195256 137.354744 
L 617.374901 137.354744 
" style="fill:none;stroke:#00bfbf;stroke-linecap:square;stroke-width:2;"/>
   </g>
   <g id="line2d_54">
    <path clip-path="url(#p72df2a844e)" d="M 613.33646 107.598201 
L 622.516105 107.598201 
L 622.516105 137.05371 
L 613.33646 137.05371 
" style="fill:none;stroke:#00bfbf;stroke-linecap:square;stroke-width:2;"/>
   </g>
   <g id="line2d_55">
    <path clip-path="url(#p72df2a844e)" d="M 597.785409 107.974374 
L 588.605764 107.974374 
L 588.605764 137.429883 
L 597.785409 137.429883 
" style="fill:none;stroke:#bfbf00;stroke-linecap:square;stroke-width:2;"/>
   </g>
   <g id="line2d_56">
    <path clip-path="url(#p72df2a844e)" d="M 589.915331 107.974374 
L 599.094976 107.974374 
L 599.094976 137.429883 
L 589.915331 137.429883 
" style="fill:none;stroke:#bfbf00;stroke-linecap:square;stroke-width:2;"/>
   </g>
   <g id="patch_3">
    <path d="M 100.8 388.8 
L 100.8 64.8 
" style="fill:none;stroke:#000000;stroke-linecap:square;stroke-linejoin:miter;stroke-width:0.8;"/>
   </g>
   <g id="patch_4">
    <path d="M 705.6 388.8 
L 705.6 64.8 
" style="fill:none;stroke:#000000;stroke-linecap:square;stroke-linejoin:miter;stroke-width:0.8;"/>
   </g>
   <g id="patch_5">
    <path d="M 100.8 388.8 
L 705.6 388.8 
" style="fill:none;stroke:#000000;stroke-linecap:square;stroke-linejoin:miter;stroke-width:0.8;"/>
   </g>
   <g id="patch_6">
    <path d="M 100.8 64.8 
L 705.6 64.8 
" style="fill:none;stroke:#000000;stroke-linecap:square;stroke-linejoin:miter;stroke-width:0.8;"/>
   </g>
   <g id="text_16">
    <!-- interface.py SLOPE -->
    <g transform="translate(346.199062 58.8)scale(0.12 -0.12)">
     <defs>
      <path d="M 2375 4863 
L 2375 4384 
L 1825 4384 
Q 1516 4384 1395 4259 
Q 1275 4134 1275 3809 
L 1275 3500 
L 2222 3500 
L 2222 3053 
L 1275 3053 
L 1275 0 
L 697 0 
L 697 3053 
L 147 3053 
L 147 3500 
L 697 3500 
L 697 3744 
Q 697 4328 969 4595 
Q 1241 4863 1831 4863 
L 2375 4863 
z
" id="DejaVuSans-66" transform="scale(0.015625)"/>
      <path d="M 2194 1759 
Q 1497 1759 1228 1600 
Q 959 1441 959 1056 
Q 959 750 1161 570 
Q 1363 391 1709 391 
Q 2188 391 2477 730 
Q 2766 1069 2766 1631 
L 2766 1759 
L 2194 1759 
z
M 3341 1997 
L 3341 0 
L 2766 0 
L 2766 531 
Q 2569 213 2275 61 
Q 1981 -91 1556 -91 
Q 1019 -91 701 211 
Q 384 513 384 1019 
Q 384 1609 779 1909 
Q 1175 2209 1959 2209 
L 2766 2209 
L 2766 2266 
Q 2766 2663 2505 2880 
Q 2244 3097 1772 3097 
Q 1472 3097 1187 3025 
Q 903 2953 641 2809 
L 641 3341 
Q 956 3463 1253 3523 
Q 1550 3584 1831 3584 
Q 2591 3584 2966 3190 
Q 3341 2797 3341 1997 
z
" id="DejaVuSans-61" transform="scale(0.015625)"/>
      <path d="M 1159 525 
L 1159 -1331 
L 581 -1331 
L 581 3500 
L 1159 3500 
L 1159 2969 
Q 1341 3281 1617 3432 
Q 1894 3584 2278 3584 
Q 2916 3584 3314 3078 
Q 3713 2572 3713 1747 
Q 3713 922 3314 415 
Q 2916 -91 2278 -91 
Q 1894 -91 1617 61 
Q 1341 213 1159 525 
z
M 3116 1747 
Q 3116 2381 2855 2742 
Q 2594 3103 2138 3103 
Q 1681 3103 1420 2742 
Q 1159 2381 1159 1747 
Q 1159 1113 1420 752 
Q 1681 391 2138 391 
Q 2594 391 2855 752 
Q 3116 1113 3116 1747 
z
" id="DejaVuSans-70" transform="scale(0.015625)"/>
      <path d="M 3425 4513 
L 3425 3897 
Q 3066 4069 2747 4153 
Q 2428 4238 2131 4238 
Q 1616 4238 1336 4038 
Q 1056 3838 1056 3469 
Q 1056 3159 1242 3001 
Q 1428 2844 1947 2747 
L 2328 2669 
Q 3034 2534 3370 2195 
Q 3706 1856 3706 1288 
Q 3706 609 3251 259 
Q 2797 -91 1919 -91 
Q 1588 -91 1214 -16 
Q 841 59 441 206 
L 441 856 
Q 825 641 1194 531 
Q 1563 422 1919 422 
Q 2459 422 2753 634 
Q 3047 847 3047 1241 
Q 3047 1584 2836 1778 
Q 2625 1972 2144 2069 
L 1759 2144 
Q 1053 2284 737 2584 
Q 422 2884 422 3419 
Q 422 4038 858 4394 
Q 1294 4750 2059 4750 
Q 2388 4750 2728 4690 
Q 3069 4631 3425 4513 
z
" id="DejaVuSans-53" transform="scale(0.015625)"/>
      <path d="M 628 4666 
L 1259 4666 
L 1259 531 
L 3531 531 
L 3531 0 
L 628 0 
L 628 4666 
z
" id="DejaVuSans-4c" transform="scale(0.015625)"/>
      <path d="M 2522 4238 
Q 1834 4238 1429 3725 
Q 1025 3213 1025 2328 
Q 1025 1447 1429 934 
Q 1834 422 2522 422 
Q 3209 422 3611 934 
Q 4013 1447 4013 2328 
Q 4013 3213 3611 3725 
Q 3209 4238 2522 4238 
z
M 2522 4750 
Q 3503 4750 4090 4092 
Q 4678 3434 4678 2328 
Q 4678 1225 4090 567 
Q 3503 -91 2522 -91 
Q 1538 -91 948 565 
Q 359 1222 359 2328 
Q 359 3434 948 4092 
Q 1538 4750 2522 4750 
z
" id="DejaVuSans-4f" transform="scale(0.015625)"/>
      <path d="M 1259 4147 
L 1259 2394 
L 2053 2394 
Q 2494 2394 2734 2622 
Q 2975 2850 2975 3272 
Q 2975 3691 2734 3919 
Q 2494 4147 2053 4147 
L 1259 4147 
z
M 628 4666 
L 2053 4666 
Q 2838 4666 3239 4311 
Q 3641 3956 3641 3272 
Q 3641 2581 3239 2228 
Q 2838 1875 2053 1875 
L 1259 1875 
L 1259 0 
L 628 0 
L 628 4666 
z
" id="DejaVuSans-50" transform="scale(0.015625)"/>
      <path d="M 628 4666 
L 3578 4666 
L 3578 4134 
L 1259 4134 
L 1259 2753 
L 3481 2753 
L 3481 2222 
L 1259 2222 
L 1259 531 
L 3634 531 
L 3634 0 
L 628 0 
L 628 4666 
z
" id="DejaVuSans-45" transform="scale(0.015625)"/>
     </defs>
     <use xlink:href="#DejaVuSans-69"/>
     <use x="27.783203" xlink:href="#DejaVuSans-6e"/>
     <use x="91.162109" xlink:href="#DejaVuSans-74"/>
     <use x="130.371094" xlink:href="#DejaVuSans-65"/>
     <use x="191.894531" xlink:href="#DejaVuSans-72"/>
     <use x="233.007812" xlink:href="#DejaVuSans-66"/>
     <use x="268.212891" xlink:href="#DejaVuSans-61"/>
     <use x="329.492188" xlink:href="#DejaVuSans-63"/>
     <use x="384.472656" xlink:href="#DejaVuSans-65"/>
     <use x="445.996094" xlink:href="#DejaVuSans-2e"/>
     <use x="477.783203" xlink:href="#DejaVuSans-70"/>
     <use x="541.259766" xlink:href="#DejaVuSans-79"/>
     <use x="600.439453" xlink:href="#DejaVuSans-20"/>
     <use x="632.226562" xlink:href="#DejaVuSans-53"/>
     <use x="695.703125" xlink:href="#DejaVuSans-4c"/>
     <use x="747.791016" xlink:href="#DejaVuSans-4f"/>
     <use x="826.501953" xlink:href="#DejaVuSans-50"/>
     <use x="886.804688" xlink:href="#DejaVuSans-45"/>
    </g>
   </g>
   <g id="legend_1">
    <g id="patch_7">
     <path d="M 712.6 340.054688 
L 1012.465625 340.054688 
Q 1014.465625 340.054688 1014.465625 338.054688 
L 1014.465625 115.545312 
Q 1014.465625 113.545312 1012.465625 113.545312 
L 712.6 113.545312 
Q 710.6 113.545312 710.6 115.545312 
L 710.6 338.054688 
Q 710.6 340.054688 712.6 340.054688 
z
" style="fill:#ffffff;opacity:0.5;stroke:#cccccc;stroke-linejoin:miter;"/>
    </g>
    <g id="line2d_57">
     <path d="M 714.6 121.64375 
L 734.6 121.64375 
" style="fill:none;stroke:#000000;stroke-linecap:square;stroke-width:1.5;"/>
    </g>
    <g id="line2d_58">
     <g>
      <use style="stroke:#000000;" x="724.6" xlink:href="#maa7cb6b415" y="121.64375"/>
     </g>
    </g>
    <g id="text_17">
     <!-- 28 / 09 / 2021 - start at 03:25:41.918 slope 34.38935 -->
     <g transform="translate(742.6 125.14375)scale(0.1 -0.1)">
      <defs>
       <path d="M 1625 4666 
L 2156 4666 
L 531 -594 
L 0 -594 
L 1625 4666 
z
" id="DejaVuSans-2f" transform="scale(0.015625)"/>
       <path d="M 703 97 
L 703 672 
Q 941 559 1184 500 
Q 1428 441 1663 441 
Q 2288 441 2617 861 
Q 2947 1281 2994 2138 
Q 2813 1869 2534 1725 
Q 2256 1581 1919 1581 
Q 1219 1581 811 2004 
Q 403 2428 403 3163 
Q 403 3881 828 4315 
Q 1253 4750 1959 4750 
Q 2769 4750 3195 4129 
Q 3622 3509 3622 2328 
Q 3622 1225 3098 567 
Q 2575 -91 1691 -91 
Q 1453 -91 1209 -44 
Q 966 3 703 97 
z
M 1959 2075 
Q 2384 2075 2632 2365 
Q 2881 2656 2881 3163 
Q 2881 3666 2632 3958 
Q 2384 4250 1959 4250 
Q 1534 4250 1286 3958 
Q 1038 3666 1038 3163 
Q 1038 2656 1286 2365 
Q 1534 2075 1959 2075 
z
" id="DejaVuSans-39" transform="scale(0.015625)"/>
       <path d="M 313 2009 
L 1997 2009 
L 1997 1497 
L 313 1497 
L 313 2009 
z
" id="DejaVuSans-2d" transform="scale(0.015625)"/>
       <path d="M 750 794 
L 1409 794 
L 1409 0 
L 750 0 
L 750 794 
z
M 750 3309 
L 1409 3309 
L 1409 2516 
L 750 2516 
L 750 3309 
z
" id="DejaVuSans-3a" transform="scale(0.015625)"/>
       <path d="M 603 4863 
L 1178 4863 
L 1178 0 
L 603 0 
L 603 4863 
z
" id="DejaVuSans-6c" transform="scale(0.015625)"/>
      </defs>
      <use xlink:href="#DejaVuSans-32"/>
      <use x="63.623047" xlink:href="#DejaVuSans-38"/>
      <use x="127.246094" xlink:href="#DejaVuSans-20"/>
      <use x="159.033203" xlink:href="#DejaVuSans-2f"/>
      <use x="192.724609" xlink:href="#DejaVuSans-20"/>
      <use x="224.511719" xlink:href="#DejaVuSans-30"/>
      <use x="288.134766" xlink:href="#DejaVuSans-39"/>
      <use x="351.757812" xlink:href="#DejaVuSans-20"/>
      <use x="383.544922" xlink:href="#DejaVuSans-2f"/>
      <use x="417.236328" xlink:href="#DejaVuSans-20"/>
      <use x="449.023438" xlink:href="#DejaVuSans-32"/>
      <use x="512.646484" xlink:href="#DejaVuSans-30"/>
      <use x="576.269531" xlink:href="#DejaVuSans-32"/>
      <use x="639.892578" xlink:href="#DejaVuSans-31"/>
      <use x="703.515625" xlink:href="#DejaVuSans-20"/>
      <use x="735.302734" xlink:href="#DejaVuSans-2d"/>
      <use x="771.386719" xlink:href="#DejaVuSans-20"/>
      <use x="803.173828" xlink:href="#DejaVuSans-73"/>
      <use x="855.273438" xlink:href="#DejaVuSans-74"/>
      <use x="894.482422" xlink:href="#DejaVuSans-61"/>
      <use x="955.761719" xlink:href="#DejaVuSans-72"/>
      <use x="996.875" xlink:href="#DejaVuSans-74"/>
      <use x="1036.083984" xlink:href="#DejaVuSans-20"/>
      <use x="1067.871094" xlink:href="#DejaVuSans-61"/>
      <use x="1129.150391" xlink:href="#DejaVuSans-74"/>
      <use x="1168.359375" xlink:href="#DejaVuSans-20"/>
      <use x="1200.146484" xlink:href="#DejaVuSans-30"/>
      <use x="1263.769531" xlink:href="#DejaVuSans-33"/>
      <use x="1327.392578" xlink:href="#DejaVuSans-3a"/>
      <use x="1361.083984" xlink:href="#DejaVuSans-32"/>
      <use x="1424.707031" xlink:href="#DejaVuSans-35"/>
      <use x="1488.330078" xlink:href="#DejaVuSans-3a"/>
      <use x="1522.021484" xlink:href="#DejaVuSans-34"/>
      <use x="1585.644531" xlink:href="#DejaVuSans-31"/>
      <use x="1649.267578" xlink:href="#DejaVuSans-2e"/>
      <use x="1681.054688" xlink:href="#DejaVuSans-39"/>
      <use x="1744.677734" xlink:href="#DejaVuSans-31"/>
      <use x="1808.300781" xlink:href="#DejaVuSans-38"/>
      <use x="1871.923828" xlink:href="#DejaVuSans-20"/>
      <use x="1903.710938" xlink:href="#DejaVuSans-73"/>
      <use x="1955.810547" xlink:href="#DejaVuSans-6c"/>
      <use x="1983.59375" xlink:href="#DejaVuSans-6f"/>
      <use x="2044.775391" xlink:href="#DejaVuSans-70"/>
      <use x="2108.251953" xlink:href="#DejaVuSans-65"/>
      <use x="2169.775391" xlink:href="#DejaVuSans-20"/>
      <use x="2201.5625" xlink:href="#DejaVuSans-33"/>
      <use x="2265.185547" xlink:href="#DejaVuSans-34"/>
      <use x="2328.808594" xlink:href="#DejaVuSans-2e"/>
      <use x="2360.595703" xlink:href="#DejaVuSans-33"/>
      <use x="2424.21875" xlink:href="#DejaVuSans-38"/>
      <use x="2487.841797" xlink:href="#DejaVuSans-39"/>
      <use x="2551.464844" xlink:href="#DejaVuSans-33"/>
      <use x="2615.087891" xlink:href="#DejaVuSans-35"/>
     </g>
    </g>
    <g id="line2d_59">
     <path d="M 714.6 136.321875 
L 734.6 136.321875 
" style="fill:none;stroke:#00bfbf;stroke-linecap:square;stroke-width:2;"/>
    </g>
    <g id="line2d_60"/>
    <g id="text_18">
     <!-- interface.__init__ 0.003s -->
     <g transform="translate(742.6 139.821875)scale(0.1 -0.1)">
      <defs>
       <path d="M 3263 -1063 
L 3263 -1509 
L -63 -1509 
L -63 -1063 
L 3263 -1063 
z
" id="DejaVuSans-5f" transform="scale(0.015625)"/>
      </defs>
      <use xlink:href="#DejaVuSans-69"/>
      <use x="27.783203" xlink:href="#DejaVuSans-6e"/>
      <use x="91.162109" xlink:href="#DejaVuSans-74"/>
      <use x="130.371094" xlink:href="#DejaVuSans-65"/>
      <use x="191.894531" xlink:href="#DejaVuSans-72"/>
      <use x="233.007812" xlink:href="#DejaVuSans-66"/>
      <use x="268.212891" xlink:href="#DejaVuSans-61"/>
      <use x="329.492188" xlink:href="#DejaVuSans-63"/>
      <use x="384.472656" xlink:href="#DejaVuSans-65"/>
      <use x="445.996094" xlink:href="#DejaVuSans-2e"/>
      <use x="477.783203" xlink:href="#DejaVuSans-5f"/>
      <use x="527.783203" xlink:href="#DejaVuSans-5f"/>
      <use x="577.783203" xlink:href="#DejaVuSans-69"/>
      <use x="605.566406" xlink:href="#DejaVuSans-6e"/>
      <use x="668.945312" xlink:href="#DejaVuSans-69"/>
      <use x="696.728516" xlink:href="#DejaVuSans-74"/>
      <use x="735.9375" xlink:href="#DejaVuSans-5f"/>
      <use x="785.9375" xlink:href="#DejaVuSans-5f"/>
      <use x="835.9375" xlink:href="#DejaVuSans-20"/>
      <use x="867.724609" xlink:href="#DejaVuSans-30"/>
      <use x="931.347656" xlink:href="#DejaVuSans-2e"/>
      <use x="963.134766" xlink:href="#DejaVuSans-30"/>
      <use x="1026.757812" xlink:href="#DejaVuSans-30"/>
      <use x="1090.380859" xlink:href="#DejaVuSans-33"/>
      <use x="1154.003906" xlink:href="#DejaVuSans-73"/>
     </g>
    </g>
    <g id="line2d_61">
     <path d="M 714.6 151.278125 
L 734.6 151.278125 
" style="fill:none;stroke:#bfbf00;stroke-linecap:square;stroke-width:2;"/>
    </g>
    <g id="line2d_62"/>
    <g id="text_19">
     <!--  __main__.__init__ 0.004s -->
     <g transform="translate(742.6 154.778125)scale(0.1 -0.1)">
      <use xlink:href="#DejaVuSans-20"/>
      <use x="31.787109" xlink:href="#DejaVuSans-5f"/>
      <use x="81.787109" xlink:href="#DejaVuSans-5f"/>
      <use x="131.787109" xlink:href="#DejaVuSans-6d"/>
      <use x="229.199219" xlink:href="#DejaVuSans-61"/>
      <use x="290.478516" xlink:href="#DejaVuSans-69"/>
      <use x="318.261719" xlink:href="#DejaVuSans-6e"/>
      <use x="381.640625" xlink:href="#DejaVuSans-5f"/>
      <use x="431.640625" xlink:href="#DejaVuSans-5f"/>
      <use x="481.640625" xlink:href="#DejaVuSans-2e"/>
      <use x="513.427734" xlink:href="#DejaVuSans-5f"/>
      <use x="563.427734" xlink:href="#DejaVuSans-5f"/>
      <use x="613.427734" xlink:href="#DejaVuSans-69"/>
      <use x="641.210938" xlink:href="#DejaVuSans-6e"/>
      <use x="704.589844" xlink:href="#DejaVuSans-69"/>
      <use x="732.373047" xlink:href="#DejaVuSans-74"/>
      <use x="771.582031" xlink:href="#DejaVuSans-5f"/>
      <use x="821.582031" xlink:href="#DejaVuSans-5f"/>
      <use x="871.582031" xlink:href="#DejaVuSans-20"/>
      <use x="903.369141" xlink:href="#DejaVuSans-30"/>
      <use x="966.992188" xlink:href="#DejaVuSans-2e"/>
      <use x="998.779297" xlink:href="#DejaVuSans-30"/>
      <use x="1062.402344" xlink:href="#DejaVuSans-30"/>
      <use x="1126.025391" xlink:href="#DejaVuSans-34"/>
      <use x="1189.648438" xlink:href="#DejaVuSans-73"/>
     </g>
    </g>
    <g id="line2d_63">
     <path d="M 714.6 166.234375 
L 734.6 166.234375 
" style="fill:none;stroke:#008000;stroke-linecap:square;stroke-width:2;"/>
    </g>
    <g id="line2d_64"/>
    <g id="text_20">
     <!-- all_item_names 0.005s -->
     <g transform="translate(742.6 169.734375)scale(0.1 -0.1)">
      <use xlink:href="#DejaVuSans-61"/>
      <use x="61.279297" xlink:href="#DejaVuSans-6c"/>
      <use x="89.0625" xlink:href="#DejaVuSans-6c"/>
      <use x="116.845703" xlink:href="#DejaVuSans-5f"/>
      <use x="166.845703" xlink:href="#DejaVuSans-69"/>
      <use x="194.628906" xlink:href="#DejaVuSans-74"/>
      <use x="233.837891" xlink:href="#DejaVuSans-65"/>
      <use x="295.361328" xlink:href="#DejaVuSans-6d"/>
      <use x="392.773438" xlink:href="#DejaVuSans-5f"/>
      <use x="442.773438" xlink:href="#DejaVuSans-6e"/>
      <use x="506.152344" xlink:href="#DejaVuSans-61"/>
      <use x="567.431641" xlink:href="#DejaVuSans-6d"/>
      <use x="664.84375" xlink:href="#DejaVuSans-65"/>
      <use x="726.367188" xlink:href="#DejaVuSans-73"/>
      <use x="778.466797" xlink:href="#DejaVuSans-20"/>
      <use x="810.253906" xlink:href="#DejaVuSans-30"/>
      <use x="873.876953" xlink:href="#DejaVuSans-2e"/>
      <use x="905.664062" xlink:href="#DejaVuSans-30"/>
      <use x="969.287109" xlink:href="#DejaVuSans-30"/>
      <use x="1032.910156" xlink:href="#DejaVuSans-35"/>
      <use x="1096.533203" xlink:href="#DejaVuSans-73"/>
     </g>
    </g>
    <g id="line2d_65">
     <path d="M 714.6 181.190625 
L 734.6 181.190625 
" style="fill:none;stroke:#ff0000;stroke-linecap:square;stroke-width:2;"/>
    </g>
    <g id="line2d_66"/>
    <g id="text_21">
     <!-- check_is_setup 0.005s -->
     <g transform="translate(742.6 184.690625)scale(0.1 -0.1)">
      <defs>
       <path d="M 3513 2113 
L 3513 0 
L 2938 0 
L 2938 2094 
Q 2938 2591 2744 2837 
Q 2550 3084 2163 3084 
Q 1697 3084 1428 2787 
Q 1159 2491 1159 1978 
L 1159 0 
L 581 0 
L 581 4863 
L 1159 4863 
L 1159 2956 
Q 1366 3272 1645 3428 
Q 1925 3584 2291 3584 
Q 2894 3584 3203 3211 
Q 3513 2838 3513 2113 
z
" id="DejaVuSans-68" transform="scale(0.015625)"/>
       <path d="M 581 4863 
L 1159 4863 
L 1159 1991 
L 2875 3500 
L 3609 3500 
L 1753 1863 
L 3688 0 
L 2938 0 
L 1159 1709 
L 1159 0 
L 581 0 
L 581 4863 
z
" id="DejaVuSans-6b" transform="scale(0.015625)"/>
      </defs>
      <use xlink:href="#DejaVuSans-63"/>
      <use x="54.980469" xlink:href="#DejaVuSans-68"/>
      <use x="118.359375" xlink:href="#DejaVuSans-65"/>
      <use x="179.882812" xlink:href="#DejaVuSans-63"/>
      <use x="234.863281" xlink:href="#DejaVuSans-6b"/>
      <use x="292.773438" xlink:href="#DejaVuSans-5f"/>
      <use x="342.773438" xlink:href="#DejaVuSans-69"/>
      <use x="370.556641" xlink:href="#DejaVuSans-73"/>
      <use x="422.65625" xlink:href="#DejaVuSans-5f"/>
      <use x="472.65625" xlink:href="#DejaVuSans-73"/>
      <use x="524.755859" xlink:href="#DejaVuSans-65"/>
      <use x="586.279297" xlink:href="#DejaVuSans-74"/>
      <use x="625.488281" xlink:href="#DejaVuSans-75"/>
      <use x="688.867188" xlink:href="#DejaVuSans-70"/>
      <use x="752.34375" xlink:href="#DejaVuSans-20"/>
      <use x="784.130859" xlink:href="#DejaVuSans-30"/>
      <use x="847.753906" xlink:href="#DejaVuSans-2e"/>
      <use x="879.541016" xlink:href="#DejaVuSans-30"/>
      <use x="943.164062" xlink:href="#DejaVuSans-30"/>
      <use x="1006.787109" xlink:href="#DejaVuSans-35"/>
      <use x="1070.410156" xlink:href="#DejaVuSans-73"/>
     </g>
    </g>
    <g id="line2d_67">
     <path d="M 714.6 196.146875 
L 734.6 196.146875 
" style="fill:none;stroke:#ff0000;stroke-linecap:square;stroke-width:2;"/>
    </g>
    <g id="line2d_68"/>
    <g id="text_22">
     <!-- check_is_setup 0.005s -->
     <g transform="translate(742.6 199.646875)scale(0.1 -0.1)">
      <use xlink:href="#DejaVuSans-63"/>
      <use x="54.980469" xlink:href="#DejaVuSans-68"/>
      <use x="118.359375" xlink:href="#DejaVuSans-65"/>
      <use x="179.882812" xlink:href="#DejaVuSans-63"/>
      <use x="234.863281" xlink:href="#DejaVuSans-6b"/>
      <use x="292.773438" xlink:href="#DejaVuSans-5f"/>
      <use x="342.773438" xlink:href="#DejaVuSans-69"/>
      <use x="370.556641" xlink:href="#DejaVuSans-73"/>
      <use x="422.65625" xlink:href="#DejaVuSans-5f"/>
      <use x="472.65625" xlink:href="#DejaVuSans-73"/>
      <use x="524.755859" xlink:href="#DejaVuSans-65"/>
      <use x="586.279297" xlink:href="#DejaVuSans-74"/>
      <use x="625.488281" xlink:href="#DejaVuSans-75"/>
      <use x="688.867188" xlink:href="#DejaVuSans-70"/>
      <use x="752.34375" xlink:href="#DejaVuSans-20"/>
      <use x="784.130859" xlink:href="#DejaVuSans-30"/>
      <use x="847.753906" xlink:href="#DejaVuSans-2e"/>
      <use x="879.541016" xlink:href="#DejaVuSans-30"/>
      <use x="943.164062" xlink:href="#DejaVuSans-30"/>
      <use x="1006.787109" xlink:href="#DejaVuSans-35"/>
      <use x="1070.410156" xlink:href="#DejaVuSans-73"/>
     </g>
    </g>
    <g id="line2d_69">
     <path d="M 714.6 211.103125 
L 734.6 211.103125 
" style="fill:none;stroke:#0000ff;stroke-linecap:square;stroke-width:2;"/>
    </g>
    <g id="line2d_70"/>
    <g id="text_23">
     <!--  _get_plugins 0.036s -->
     <g transform="translate(742.6 214.603125)scale(0.1 -0.1)">
      <defs>
       <path d="M 2906 1791 
Q 2906 2416 2648 2759 
Q 2391 3103 1925 3103 
Q 1463 3103 1205 2759 
Q 947 2416 947 1791 
Q 947 1169 1205 825 
Q 1463 481 1925 481 
Q 2391 481 2648 825 
Q 2906 1169 2906 1791 
z
M 3481 434 
Q 3481 -459 3084 -895 
Q 2688 -1331 1869 -1331 
Q 1566 -1331 1297 -1286 
Q 1028 -1241 775 -1147 
L 775 -588 
Q 1028 -725 1275 -790 
Q 1522 -856 1778 -856 
Q 2344 -856 2625 -561 
Q 2906 -266 2906 331 
L 2906 616 
Q 2728 306 2450 153 
Q 2172 0 1784 0 
Q 1141 0 747 490 
Q 353 981 353 1791 
Q 353 2603 747 3093 
Q 1141 3584 1784 3584 
Q 2172 3584 2450 3431 
Q 2728 3278 2906 2969 
L 2906 3500 
L 3481 3500 
L 3481 434 
z
" id="DejaVuSans-67" transform="scale(0.015625)"/>
      </defs>
      <use xlink:href="#DejaVuSans-20"/>
      <use x="31.787109" xlink:href="#DejaVuSans-5f"/>
      <use x="81.787109" xlink:href="#DejaVuSans-67"/>
      <use x="145.263672" xlink:href="#DejaVuSans-65"/>
      <use x="206.787109" xlink:href="#DejaVuSans-74"/>
      <use x="245.996094" xlink:href="#DejaVuSans-5f"/>
      <use x="295.996094" xlink:href="#DejaVuSans-70"/>
      <use x="359.472656" xlink:href="#DejaVuSans-6c"/>
      <use x="387.255859" xlink:href="#DejaVuSans-75"/>
      <use x="450.634766" xlink:href="#DejaVuSans-67"/>
      <use x="514.111328" xlink:href="#DejaVuSans-69"/>
      <use x="541.894531" xlink:href="#DejaVuSans-6e"/>
      <use x="605.273438" xlink:href="#DejaVuSans-73"/>
      <use x="657.373047" xlink:href="#DejaVuSans-20"/>
      <use x="689.160156" xlink:href="#DejaVuSans-30"/>
      <use x="752.783203" xlink:href="#DejaVuSans-2e"/>
      <use x="784.570312" xlink:href="#DejaVuSans-30"/>
      <use x="848.193359" xlink:href="#DejaVuSans-33"/>
      <use x="911.816406" xlink:href="#DejaVuSans-36"/>
      <use x="975.439453" xlink:href="#DejaVuSans-73"/>
     </g>
    </g>
    <g id="line2d_71">
     <path d="M 714.6 226.059375 
L 734.6 226.059375 
" style="fill:none;stroke:#00bfbf;stroke-linecap:square;stroke-width:2;"/>
    </g>
    <g id="line2d_72"/>
    <g id="text_24">
     <!-- register 0.004s -->
     <g transform="translate(742.6 229.559375)scale(0.1 -0.1)">
      <use xlink:href="#DejaVuSans-72"/>
      <use x="38.863281" xlink:href="#DejaVuSans-65"/>
      <use x="100.386719" xlink:href="#DejaVuSans-67"/>
      <use x="163.863281" xlink:href="#DejaVuSans-69"/>
      <use x="191.646484" xlink:href="#DejaVuSans-73"/>
      <use x="243.746094" xlink:href="#DejaVuSans-74"/>
      <use x="282.955078" xlink:href="#DejaVuSans-65"/>
      <use x="344.478516" xlink:href="#DejaVuSans-72"/>
      <use x="385.591797" xlink:href="#DejaVuSans-20"/>
      <use x="417.378906" xlink:href="#DejaVuSans-30"/>
      <use x="481.001953" xlink:href="#DejaVuSans-2e"/>
      <use x="512.789062" xlink:href="#DejaVuSans-30"/>
      <use x="576.412109" xlink:href="#DejaVuSans-30"/>
      <use x="640.035156" xlink:href="#DejaVuSans-34"/>
      <use x="703.658203" xlink:href="#DejaVuSans-73"/>
     </g>
    </g>
    <g id="line2d_73">
     <path d="M 714.6 240.7375 
L 734.6 240.7375 
" style="fill:none;stroke:#bfbf00;stroke-linecap:square;stroke-width:2;"/>
    </g>
    <g id="line2d_74"/>
    <g id="text_25">
     <!--  __getitem__ 0.012s -->
     <g transform="translate(742.6 244.2375)scale(0.1 -0.1)">
      <use xlink:href="#DejaVuSans-20"/>
      <use x="31.787109" xlink:href="#DejaVuSans-5f"/>
      <use x="81.787109" xlink:href="#DejaVuSans-5f"/>
      <use x="131.787109" xlink:href="#DejaVuSans-67"/>
      <use x="195.263672" xlink:href="#DejaVuSans-65"/>
      <use x="256.787109" xlink:href="#DejaVuSans-74"/>
      <use x="295.996094" xlink:href="#DejaVuSans-69"/>
      <use x="323.779297" xlink:href="#DejaVuSans-74"/>
      <use x="362.988281" xlink:href="#DejaVuSans-65"/>
      <use x="424.511719" xlink:href="#DejaVuSans-6d"/>
      <use x="521.923828" xlink:href="#DejaVuSans-5f"/>
      <use x="571.923828" xlink:href="#DejaVuSans-5f"/>
      <use x="621.923828" xlink:href="#DejaVuSans-20"/>
      <use x="653.710938" xlink:href="#DejaVuSans-30"/>
      <use x="717.333984" xlink:href="#DejaVuSans-2e"/>
      <use x="749.121094" xlink:href="#DejaVuSans-30"/>
      <use x="812.744141" xlink:href="#DejaVuSans-31"/>
      <use x="876.367188" xlink:href="#DejaVuSans-32"/>
      <use x="939.990234" xlink:href="#DejaVuSans-73"/>
     </g>
    </g>
    <g id="line2d_75">
     <path d="M 714.6 255.69375 
L 734.6 255.69375 
" style="fill:none;stroke:#bfbf00;stroke-linecap:square;stroke-width:2;"/>
    </g>
    <g id="line2d_76"/>
    <g id="text_26">
     <!--  __getitem__ 0.016s -->
     <g transform="translate(742.6 259.19375)scale(0.1 -0.1)">
      <use xlink:href="#DejaVuSans-20"/>
      <use x="31.787109" xlink:href="#DejaVuSans-5f"/>
      <use x="81.787109" xlink:href="#DejaVuSans-5f"/>
      <use x="131.787109" xlink:href="#DejaVuSans-67"/>
      <use x="195.263672" xlink:href="#DejaVuSans-65"/>
      <use x="256.787109" xlink:href="#DejaVuSans-74"/>
      <use x="295.996094" xlink:href="#DejaVuSans-69"/>
      <use x="323.779297" xlink:href="#DejaVuSans-74"/>
      <use x="362.988281" xlink:href="#DejaVuSans-65"/>
      <use x="424.511719" xlink:href="#DejaVuSans-6d"/>
      <use x="521.923828" xlink:href="#DejaVuSans-5f"/>
      <use x="571.923828" xlink:href="#DejaVuSans-5f"/>
      <use x="621.923828" xlink:href="#DejaVuSans-20"/>
      <use x="653.710938" xlink:href="#DejaVuSans-30"/>
      <use x="717.333984" xlink:href="#DejaVuSans-2e"/>
      <use x="749.121094" xlink:href="#DejaVuSans-30"/>
      <use x="812.744141" xlink:href="#DejaVuSans-31"/>
      <use x="876.367188" xlink:href="#DejaVuSans-36"/>
      <use x="939.990234" xlink:href="#DejaVuSans-73"/>
     </g>
    </g>
    <g id="line2d_77">
     <path d="M 714.6 270.65 
L 734.6 270.65 
" style="fill:none;stroke:#008000;stroke-linecap:square;stroke-width:2;"/>
    </g>
    <g id="line2d_78"/>
    <g id="text_27">
     <!--  _initialize_data 0.119s -->
     <g transform="translate(742.6 274.15)scale(0.1 -0.1)">
      <defs>
       <path d="M 353 3500 
L 3084 3500 
L 3084 2975 
L 922 459 
L 3084 459 
L 3084 0 
L 275 0 
L 275 525 
L 2438 3041 
L 353 3041 
L 353 3500 
z
" id="DejaVuSans-7a" transform="scale(0.015625)"/>
      </defs>
      <use xlink:href="#DejaVuSans-20"/>
      <use x="31.787109" xlink:href="#DejaVuSans-5f"/>
      <use x="81.787109" xlink:href="#DejaVuSans-69"/>
      <use x="109.570312" xlink:href="#DejaVuSans-6e"/>
      <use x="172.949219" xlink:href="#DejaVuSans-69"/>
      <use x="200.732422" xlink:href="#DejaVuSans-74"/>
      <use x="239.941406" xlink:href="#DejaVuSans-69"/>
      <use x="267.724609" xlink:href="#DejaVuSans-61"/>
      <use x="329.003906" xlink:href="#DejaVuSans-6c"/>
      <use x="356.787109" xlink:href="#DejaVuSans-69"/>
      <use x="384.570312" xlink:href="#DejaVuSans-7a"/>
      <use x="437.060547" xlink:href="#DejaVuSans-65"/>
      <use x="498.583984" xlink:href="#DejaVuSans-5f"/>
      <use x="548.583984" xlink:href="#DejaVuSans-64"/>
      <use x="612.060547" xlink:href="#DejaVuSans-61"/>
      <use x="673.339844" xlink:href="#DejaVuSans-74"/>
      <use x="712.548828" xlink:href="#DejaVuSans-61"/>
      <use x="773.828125" xlink:href="#DejaVuSans-20"/>
      <use x="805.615234" xlink:href="#DejaVuSans-30"/>
      <use x="869.238281" xlink:href="#DejaVuSans-2e"/>
      <use x="901.025391" xlink:href="#DejaVuSans-31"/>
      <use x="964.648438" xlink:href="#DejaVuSans-31"/>
      <use x="1028.271484" xlink:href="#DejaVuSans-39"/>
      <use x="1091.894531" xlink:href="#DejaVuSans-73"/>
     </g>
    </g>
    <g id="line2d_79">
     <path d="M 714.6 285.60625 
L 734.6 285.60625 
" style="fill:none;stroke:#ff0000;stroke-linecap:square;stroke-width:2;"/>
    </g>
    <g id="line2d_80"/>
    <g id="text_28">
     <!-- setup 0.168s -->
     <g transform="translate(742.6 289.10625)scale(0.1 -0.1)">
      <use xlink:href="#DejaVuSans-73"/>
      <use x="52.099609" xlink:href="#DejaVuSans-65"/>
      <use x="113.623047" xlink:href="#DejaVuSans-74"/>
      <use x="152.832031" xlink:href="#DejaVuSans-75"/>
      <use x="216.210938" xlink:href="#DejaVuSans-70"/>
      <use x="279.6875" xlink:href="#DejaVuSans-20"/>
      <use x="311.474609" xlink:href="#DejaVuSans-30"/>
      <use x="375.097656" xlink:href="#DejaVuSans-2e"/>
      <use x="406.884766" xlink:href="#DejaVuSans-31"/>
      <use x="470.507812" xlink:href="#DejaVuSans-36"/>
      <use x="534.130859" xlink:href="#DejaVuSans-38"/>
      <use x="597.753906" xlink:href="#DejaVuSans-73"/>
     </g>
    </g>
    <g id="line2d_81">
     <path d="M 714.6 300.284375 
L 734.6 300.284375 
" style="fill:none;stroke:#0000ff;stroke-linecap:square;stroke-width:2;"/>
    </g>
    <g id="line2d_82"/>
    <g id="text_29">
     <!-- setup_meta_data 0.175s -->
     <g transform="translate(742.6 303.784375)scale(0.1 -0.1)">
      <defs>
       <path d="M 525 4666 
L 3525 4666 
L 3525 4397 
L 1831 0 
L 1172 0 
L 2766 4134 
L 525 4134 
L 525 4666 
z
" id="DejaVuSans-37" transform="scale(0.015625)"/>
      </defs>
      <use xlink:href="#DejaVuSans-73"/>
      <use x="52.099609" xlink:href="#DejaVuSans-65"/>
      <use x="113.623047" xlink:href="#DejaVuSans-74"/>
      <use x="152.832031" xlink:href="#DejaVuSans-75"/>
      <use x="216.210938" xlink:href="#DejaVuSans-70"/>
      <use x="279.6875" xlink:href="#DejaVuSans-5f"/>
      <use x="329.6875" xlink:href="#DejaVuSans-6d"/>
      <use x="427.099609" xlink:href="#DejaVuSans-65"/>
      <use x="488.623047" xlink:href="#DejaVuSans-74"/>
      <use x="527.832031" xlink:href="#DejaVuSans-61"/>
      <use x="589.111328" xlink:href="#DejaVuSans-5f"/>
      <use x="639.111328" xlink:href="#DejaVuSans-64"/>
      <use x="702.587891" xlink:href="#DejaVuSans-61"/>
      <use x="763.867188" xlink:href="#DejaVuSans-74"/>
      <use x="803.076172" xlink:href="#DejaVuSans-61"/>
      <use x="864.355469" xlink:href="#DejaVuSans-20"/>
      <use x="896.142578" xlink:href="#DejaVuSans-30"/>
      <use x="959.765625" xlink:href="#DejaVuSans-2e"/>
      <use x="991.552734" xlink:href="#DejaVuSans-31"/>
      <use x="1055.175781" xlink:href="#DejaVuSans-37"/>
      <use x="1118.798828" xlink:href="#DejaVuSans-35"/>
      <use x="1182.421875" xlink:href="#DejaVuSans-73"/>
     </g>
    </g>
    <g id="line2d_83">
     <path d="M 714.6 315.240625 
L 734.6 315.240625 
" style="fill:none;stroke:#00bfbf;stroke-linecap:square;stroke-width:2;"/>
    </g>
    <g id="line2d_84"/>
    <g id="text_30">
     <!-- get_meta_paths 0.030s -->
     <g transform="translate(742.6 318.740625)scale(0.1 -0.1)">
      <use xlink:href="#DejaVuSans-67"/>
      <use x="63.476562" xlink:href="#DejaVuSans-65"/>
      <use x="125" xlink:href="#DejaVuSans-74"/>
      <use x="164.208984" xlink:href="#DejaVuSans-5f"/>
      <use x="214.208984" xlink:href="#DejaVuSans-6d"/>
      <use x="311.621094" xlink:href="#DejaVuSans-65"/>
      <use x="373.144531" xlink:href="#DejaVuSans-74"/>
      <use x="412.353516" xlink:href="#DejaVuSans-61"/>
      <use x="473.632812" xlink:href="#DejaVuSans-5f"/>
      <use x="523.632812" xlink:href="#DejaVuSans-70"/>
      <use x="587.109375" xlink:href="#DejaVuSans-61"/>
      <use x="648.388672" xlink:href="#DejaVuSans-74"/>
      <use x="687.597656" xlink:href="#DejaVuSans-68"/>
      <use x="750.976562" xlink:href="#DejaVuSans-73"/>
      <use x="803.076172" xlink:href="#DejaVuSans-20"/>
      <use x="834.863281" xlink:href="#DejaVuSans-30"/>
      <use x="898.486328" xlink:href="#DejaVuSans-2e"/>
      <use x="930.273438" xlink:href="#DejaVuSans-30"/>
      <use x="993.896484" xlink:href="#DejaVuSans-33"/>
      <use x="1057.519531" xlink:href="#DejaVuSans-30"/>
      <use x="1121.142578" xlink:href="#DejaVuSans-73"/>
     </g>
    </g>
    <g id="line2d_85">
     <path d="M 714.6 330.196875 
L 734.6 330.196875 
" style="fill:none;stroke:#bfbf00;stroke-linecap:square;stroke-width:2;"/>
    </g>
    <g id="line2d_86"/>
    <g id="text_31">
     <!-- get_meta_print 0.022s -->
     <g transform="translate(742.6 333.696875)scale(0.1 -0.1)">
      <use xlink:href="#DejaVuSans-67"/>
      <use x="63.476562" xlink:href="#DejaVuSans-65"/>
      <use x="125" xlink:href="#DejaVuSans-74"/>
      <use x="164.208984" xlink:href="#DejaVuSans-5f"/>
      <use x="214.208984" xlink:href="#DejaVuSans-6d"/>
      <use x="311.621094" xlink:href="#DejaVuSans-65"/>
      <use x="373.144531" xlink:href="#DejaVuSans-74"/>
      <use x="412.353516" xlink:href="#DejaVuSans-61"/>
      <use x="473.632812" xlink:href="#DejaVuSans-5f"/>
      <use x="523.632812" xlink:href="#DejaVuSans-70"/>
      <use x="587.109375" xlink:href="#DejaVuSans-72"/>
      <use x="628.222656" xlink:href="#DejaVuSans-69"/>
      <use x="656.005859" xlink:href="#DejaVuSans-6e"/>
      <use x="719.384766" xlink:href="#DejaVuSans-74"/>
      <use x="758.59375" xlink:href="#DejaVuSans-20"/>
      <use x="790.380859" xlink:href="#DejaVuSans-30"/>
      <use x="854.003906" xlink:href="#DejaVuSans-2e"/>
      <use x="885.791016" xlink:href="#DejaVuSans-30"/>
      <use x="949.414062" xlink:href="#DejaVuSans-32"/>
      <use x="1013.037109" xlink:href="#DejaVuSans-32"/>
      <use x="1076.660156" xlink:href="#DejaVuSans-73"/>
     </g>
    </g>
   </g>
  </g>
 </g>
 <defs>
  <clipPath id="p72df2a844e">
   <rect height="324" width="604.8" x="100.8" y="64.8"/>
  </clipPath>
 </defs>
</svg>
